<svg width="49" height="48" viewBox="0 0 49 48" fill="none" xmlns="http://www.w3.org/2000/svg">
<rect x="0.333374" width="48" height="48" rx="24" fill="#FCEEC4"/>
<path d="M25.226 22.218L25.3187 22.1701L25.3366 22.1641" fill="#F5C842"/>
<path d="M25.226 22.218L25.3187 22.1701L25.3366 22.1641" stroke="#67541C" stroke-width="0.11215" stroke-linecap="round" stroke-linejoin="round"/>
<path d="M30.8341 38.6395C30.8341 38.9565 30.7414 39.1659 30.556 39.2736C30.3676 39.3812 30.1373 39.3543 29.8592 39.1928L12.319 29.0665C12.0439 28.908 11.8136 28.6658 11.6252 28.3458C11.4397 28.0228 11.347 27.7028 11.347 27.3858C11.347 27.0688 11.4397 26.8594 11.6252 26.7517L11.682 26.7248C11.8614 26.6501 12.0708 26.686 12.319 26.8295L29.8592 36.9589C30.1373 37.1174 30.3676 37.3566 30.556 37.6796C30.7414 38.0025 30.8341 38.3225 30.8341 38.6395Z" fill="#F5C842" stroke="#67541C" stroke-width="0.11215" stroke-linecap="round" stroke-linejoin="round"/>
<path d="M30.8341 23.6833V24.102C30.8341 24.419 30.7414 24.6314 30.556 24.736C30.3676 24.8437 30.1373 24.8168 29.8592 24.6583L28.6181 23.9405L28.0468 23.6115L26.0969 22.4871L22.7713 20.5641L22.2001 20.2351L20.2502 19.1106L16.9216 17.1876L12.2233 14.4751C11.9781 14.3345 11.7717 14.1162 11.6012 13.8231C11.4307 13.5271 11.347 13.24 11.347 12.9618V12.3458C11.347 12.1424 11.3889 11.9899 11.4786 11.8942C11.5175 11.8523 11.5623 11.8164 11.6132 11.7925L11.6431 11.7775C11.6999 11.7506 11.7627 11.7357 11.8315 11.7327L18.6772 11.7566L20.2143 11.7626C20.4895 11.7745 20.7825 11.8672 21.0906 12.0467C21.3986 12.2261 21.6917 12.4684 21.9669 12.7764L23.501 14.5439L30.2988 22.3674C30.4543 22.5379 30.5739 22.7203 30.6577 22.9207C30.6756 22.9536 30.6876 22.9865 30.6996 23.0194C30.7893 23.2557 30.8341 23.477 30.8341 23.6833Z" fill="#F5C842" stroke="#67541C" stroke-width="0.11215" stroke-linecap="round" stroke-linejoin="round"/>
<path d="M22.0654 23.5129V29.1024C22.0654 29.4194 21.9697 29.6318 21.7843 29.7364C21.5988 29.8441 21.3656 29.8172 21.0904 29.6587C20.8153 29.4972 20.5821 29.2579 20.3967 28.9349C20.2082 28.6149 20.1155 28.2949 20.1155 27.9779V22.3854C20.1155 22.1522 20.1663 21.9757 20.268 21.8561C20.3039 21.8142 20.3488 21.7783 20.3967 21.7514L20.4535 21.7245C20.6299 21.6497 20.8422 21.6856 21.0904 21.8321C21.3656 21.9906 21.5988 22.2299 21.7843 22.5529C21.9218 22.7922 22.0086 23.0284 22.0445 23.2647C22.0595 23.3484 22.0654 23.4321 22.0654 23.5129Z" fill="#F5C842" stroke="#67541C" stroke-width="0.11215" stroke-linecap="round" stroke-linejoin="round"/>
<path d="M22.2 20.2351V20.8512L20.4534 21.7244L20.3967 21.7514C20.3488 21.7783 20.3039 21.8142 20.268 21.856C20.1663 21.9757 20.1155 22.1521 20.1155 22.3854V24.2755L19.5473 24.5596L17.6901 25.4867L15.9375 26.3629C16.123 26.2553 16.2187 26.0429 16.2187 25.7259V20.1364C16.2187 19.8194 16.123 19.4994 15.9375 19.1764C15.7521 18.8564 15.5189 18.6142 15.2438 18.4557C14.9955 18.3091 14.7831 18.2762 14.6067 18.348L16.9215 17.1876L20.2501 19.1106L22.2 20.2351Z" fill="#F5C842" stroke="#67541C" stroke-width="0.11215" stroke-linecap="round" stroke-linejoin="round"/>
<path d="M36.8153 20.6927V21.1114C36.8153 21.4284 36.7226 21.6408 36.5372 21.7454L36.4803 21.7723L33.7229 23.154L31.9435 24.0423L30.5558 24.7361C30.7413 24.6314 30.8339 24.4191 30.8339 24.1021V23.6834C30.8339 23.477 30.7891 23.2557 30.6994 23.0194C30.6874 22.9866 30.6754 22.9537 30.6575 22.9208C30.5737 22.7204 30.4541 22.538 30.2986 22.3675L23.5009 14.5439L21.9667 12.7765C21.6915 12.4684 21.3984 12.2262 21.0904 12.0467C20.7823 11.8673 20.4893 11.7746 20.2141 11.7626L18.677 11.7566L11.8313 11.7327C11.7625 11.7357 11.6998 11.7507 11.6429 11.7776L17.5943 8.80188L17.6362 8.78095C17.6901 8.76001 17.7498 8.74506 17.8126 8.74207L26.1954 8.77197C26.4706 8.78394 26.7636 8.87665 27.0717 9.05609C27.3797 9.23553 27.6729 9.47777 27.948 9.78581L36.2799 19.3768C36.4594 19.5742 36.594 19.7895 36.6807 20.0288C36.7704 20.2651 36.8153 20.4864 36.8153 20.6927Z" fill="#F5C842" stroke="#67541C" stroke-width="0.11215" stroke-linecap="round" stroke-linejoin="round"/>
<path d="M27.9121 26.8864V32.4789C27.9121 32.7959 27.8164 33.0052 27.6309 33.1129C27.4455 33.2206 27.2123 33.1936 26.9371 33.0321C26.662 32.8736 26.4287 32.6344 26.2432 32.3114C26.0548 31.9884 25.9622 31.6684 25.9622 31.3514V25.7619C25.9622 25.5286 26.013 25.3521 26.1147 25.2325C26.1506 25.1907 26.1954 25.1548 26.2432 25.1278L26.3001 25.1009C26.4766 25.0262 26.6889 25.0621 26.9371 25.2056C27.2123 25.3671 27.4455 25.6064 27.6309 25.9293C27.7685 26.1686 27.8582 26.4049 27.8941 26.6411C27.9061 26.7249 27.9121 26.8056 27.9121 26.8864Z" fill="#F5C842" stroke="#67541C" stroke-width="0.11215" stroke-linecap="round" stroke-linejoin="round"/>
<path d="M28.0466 23.6116V24.2276L26.3001 25.1009L26.2432 25.1278C26.1954 25.1547 26.1506 25.1906 26.1147 25.2325C26.013 25.3521 25.9622 25.5286 25.9622 25.7618V27.6489L25.391 27.9331L23.3155 28.9708L21.7842 29.7364C21.9696 29.6318 22.0653 29.4194 22.0653 29.1024V23.5129C22.0653 23.4321 22.0594 23.3484 22.0444 23.2646C22.0085 23.0284 21.9218 22.7922 21.7842 22.5529C21.5988 22.2299 21.3655 21.9907 21.0903 21.8322C20.8421 21.6856 20.6298 21.6497 20.4534 21.7245L22.1999 20.8512L22.7711 20.5641L26.0967 22.4871L28.0466 23.6116Z" fill="#F5C842" stroke="#67541C" stroke-width="0.11215" stroke-linecap="round" stroke-linejoin="round"/>
<path d="M33.8933 23.8957V29.4882C33.8933 29.8052 33.7976 30.0146 33.6122 30.1222L33.5554 30.1492L31.2376 31.3095L29.162 32.3473L27.6309 33.1129C27.8163 33.0052 27.912 32.7959 27.912 32.4789V26.8864C27.912 26.8056 27.906 26.7248 27.894 26.6411C27.8581 26.4048 27.7684 26.1686 27.6309 25.9293C27.4454 25.6063 27.2121 25.3671 26.937 25.2056C26.6888 25.0621 26.4765 25.0262 26.3 25.1009L28.0465 24.2276L28.6178 23.9405L29.8589 24.6583C30.137 24.8168 30.3673 24.8437 30.5557 24.7361L31.9434 24.0422L33.7228 23.154C33.8364 23.4022 33.8933 23.6505 33.8933 23.8957Z" fill="#F5C842" stroke="#67541C" stroke-width="0.11215" stroke-linecap="round" stroke-linejoin="round"/>
<path d="M36.8155 35.6489C36.8155 35.9659 36.7228 36.1753 36.5374 36.2829L36.4805 36.3099L30.5561 39.2736C30.7415 39.1659 30.8342 38.9565 30.8342 38.6395C30.8342 38.3225 30.7415 38.0025 30.5561 37.6796C30.3677 37.3566 30.1373 37.1173 29.8592 36.9588L12.3191 26.8295C12.0708 26.6859 11.8614 26.65 11.682 26.7248L14.4394 25.3461C14.4723 25.4179 14.5082 25.4897 14.5501 25.5614C14.7355 25.8814 14.9688 26.1237 15.2439 26.2822C15.5191 26.4407 15.7523 26.4676 15.9377 26.3629L17.6903 25.4867L19.5474 24.5596L20.1156 24.8885V27.9779C20.1156 28.2949 20.2084 28.6149 20.3968 28.9349C20.5822 29.2579 20.8154 29.4971 21.0906 29.6586C21.3657 29.8171 21.599 29.8441 21.7844 29.7364L23.3157 28.9708L25.3912 27.933L25.9624 28.265V31.3513C25.9624 31.6684 26.0551 31.9884 26.2435 32.3113C26.4289 32.6343 26.6622 32.8736 26.9373 33.0321C27.2125 33.1936 27.4458 33.2205 27.6312 33.1128L29.1624 32.3472L31.2379 31.3095L35.8405 33.9682C36.1187 34.1267 36.349 34.3659 36.5374 34.6889C36.7228 35.0119 36.8155 35.3319 36.8155 35.6489Z" fill="#F5C842" stroke="#67541C" stroke-width="0.11215" stroke-linecap="round" stroke-linejoin="round"/>
<path d="M11.6132 11.7925L11.5834 11.8074L11.6132 11.7925Z" fill="#F5C842"/>
<path d="M11.6132 11.7925L11.5834 11.8074" stroke="#67541C" stroke-width="0.11215" stroke-linecap="round" stroke-linejoin="round"/>
<path d="M16.2188 20.1364V25.7259C16.2188 26.043 16.1231 26.2553 15.9376 26.363C15.7522 26.4676 15.519 26.4407 15.2439 26.2822C14.9687 26.1237 14.7354 25.8815 14.55 25.5615C14.5081 25.4897 14.4722 25.4179 14.4393 25.3461C14.3257 25.0949 14.2689 24.8467 14.2689 24.6015V19.012C14.2689 18.6949 14.3616 18.4826 14.55 18.3749L14.6068 18.348C14.7833 18.2763 14.9956 18.3091 15.2439 18.4557C15.519 18.6142 15.7522 18.8564 15.9376 19.1764C16.1231 19.4994 16.2188 19.8194 16.2188 20.1364Z" fill="#F5C842" stroke="#67541C" stroke-width="0.11215" stroke-linecap="round" stroke-linejoin="round"/>
<path d="M30.8341 38.6395C30.8341 38.9565 30.7414 39.1659 30.556 39.2736C30.3676 39.3812 30.1373 39.3543 29.8592 39.1928L12.319 29.0665C12.0439 28.908 11.8136 28.6658 11.6252 28.3458C11.4397 28.0228 11.347 27.7028 11.347 27.3858C11.347 27.0688 11.4397 26.8594 11.6252 26.7517L11.682 26.7248C11.8614 26.6501 12.0708 26.686 12.319 26.8295L29.8592 36.9589C30.1373 37.1174 30.3676 37.3566 30.556 37.6796C30.7414 38.0025 30.8341 38.3225 30.8341 38.6395Z" fill="#F5C842" stroke="#67541C" stroke-width="0.11215" stroke-linecap="round" stroke-linejoin="round"/>
<path d="M30.8341 23.6833V24.102C30.8341 24.419 30.7414 24.6314 30.556 24.736C30.3676 24.8437 30.1373 24.8168 29.8592 24.6583L28.6181 23.9405L28.0468 23.6115L26.0969 22.4871L22.7713 20.5641L22.2001 20.2351L20.2502 19.1106L16.9216 17.1876L12.2233 14.4751C11.9781 14.3345 11.7717 14.1162 11.6012 13.8231C11.4307 13.5271 11.347 13.24 11.347 12.9618V12.3458C11.347 12.1424 11.3889 11.9899 11.4786 11.8942C11.5175 11.8523 11.5623 11.8164 11.6132 11.7925L11.6431 11.7775C11.6999 11.7506 11.7627 11.7357 11.8315 11.7327L18.6772 11.7566L20.2143 11.7626C20.4895 11.7745 20.7825 11.8672 21.0906 12.0467C21.3986 12.2261 21.6917 12.4684 21.9669 12.7764L23.501 14.5439L30.2988 22.3674C30.4543 22.5379 30.5739 22.7203 30.6577 22.9207C30.6756 22.9536 30.6876 22.9865 30.6996 23.0194C30.7893 23.2557 30.8341 23.477 30.8341 23.6833Z" fill="#F5C842" stroke="#67541C" stroke-width="0.11215" stroke-linecap="round" stroke-linejoin="round"/>
<path d="M22.0654 23.5129V29.1024C22.0654 29.4194 21.9697 29.6318 21.7843 29.7364C21.5988 29.8441 21.3656 29.8172 21.0904 29.6587C20.8153 29.4972 20.5821 29.2579 20.3967 28.9349C20.2082 28.6149 20.1155 28.2949 20.1155 27.9779V22.3854C20.1155 22.1522 20.1663 21.9757 20.268 21.8561C20.3039 21.8142 20.3488 21.7783 20.3967 21.7514L20.4535 21.7245C20.6299 21.6497 20.8422 21.6856 21.0904 21.8321C21.3656 21.9906 21.5988 22.2299 21.7843 22.5529C21.9218 22.7922 22.0086 23.0284 22.0445 23.2647C22.0595 23.3484 22.0654 23.4321 22.0654 23.5129Z" fill="#F5C842" stroke="#67541C" stroke-width="0.11215" stroke-linecap="round" stroke-linejoin="round"/>
<path d="M22.2 20.2351V20.8512L20.4534 21.7244L20.3967 21.7514C20.3488 21.7783 20.3039 21.8142 20.268 21.856C20.1663 21.9757 20.1155 22.1521 20.1155 22.3854V24.2755L19.5473 24.5596L17.6901 25.4867L15.9375 26.3629C16.123 26.2553 16.2187 26.0429 16.2187 25.7259V20.1364C16.2187 19.8194 16.123 19.4994 15.9375 19.1764C15.7521 18.8564 15.5189 18.6142 15.2438 18.4557C14.9955 18.3091 14.7831 18.2762 14.6067 18.348L16.9215 17.1876L20.2501 19.1106L22.2 20.2351Z" fill="#876E24" stroke="#67541C" stroke-width="0.11215" stroke-linecap="round" stroke-linejoin="round"/>
<path d="M36.8153 20.6927V21.1114C36.8153 21.4284 36.7226 21.6408 36.5372 21.7454L36.4803 21.7723L33.7229 23.154L31.9435 24.0423L30.5558 24.7361C30.7413 24.6314 30.8339 24.4191 30.8339 24.1021V23.6834C30.8339 23.477 30.7891 23.2557 30.6994 23.0194C30.6874 22.9866 30.6754 22.9537 30.6575 22.9208C30.5737 22.7204 30.4541 22.538 30.2986 22.3675L23.5009 14.5439L21.9667 12.7765C21.6915 12.4684 21.3984 12.2262 21.0904 12.0467C20.7823 11.8673 20.4893 11.7746 20.2141 11.7626L18.677 11.7566L11.8313 11.7327C11.7625 11.7357 11.6998 11.7507 11.6429 11.7776L17.5943 8.80188L17.6362 8.78095C17.6901 8.76001 17.7498 8.74506 17.8126 8.74207L26.1954 8.77197C26.4706 8.78394 26.7636 8.87665 27.0717 9.05609C27.3797 9.23553 27.6729 9.47777 27.948 9.78581L36.2799 19.3768C36.4594 19.5742 36.594 19.7895 36.6807 20.0288C36.7704 20.2651 36.8153 20.4864 36.8153 20.6927Z" fill="#876E24" stroke="#67541C" stroke-width="0.11215" stroke-linecap="round" stroke-linejoin="round"/>
<path d="M27.9121 26.8864V32.4789C27.9121 32.7959 27.8164 33.0052 27.6309 33.1129C27.4455 33.2206 27.2123 33.1936 26.9371 33.0321C26.662 32.8736 26.4287 32.6344 26.2432 32.3114C26.0548 31.9884 25.9622 31.6684 25.9622 31.3514V25.7619C25.9622 25.5286 26.013 25.3521 26.1147 25.2325C26.1506 25.1907 26.1954 25.1548 26.2432 25.1278L26.3001 25.1009C26.4766 25.0262 26.6889 25.0621 26.9371 25.2056C27.2123 25.3671 27.4455 25.6064 27.6309 25.9293C27.7685 26.1686 27.8582 26.4049 27.8941 26.6411C27.9061 26.7249 27.9121 26.8056 27.9121 26.8864Z" fill="#F5C842" stroke="#67541C" stroke-width="0.11215" stroke-linecap="round" stroke-linejoin="round"/>
<path d="M28.0466 23.6116V24.2276L26.3001 25.1009L26.2432 25.1278C26.1954 25.1547 26.1506 25.1906 26.1147 25.2325C26.013 25.3521 25.9622 25.5286 25.9622 25.7618V27.6489L25.391 27.9331L23.3155 28.9708L21.7842 29.7364C21.9696 29.6317 22.0653 29.4194 22.0653 29.1024V23.5129C22.0653 23.4321 22.0594 23.3484 22.0444 23.2646C22.0085 23.0284 21.9218 22.7922 21.7842 22.5529C21.5988 22.2299 21.3655 21.9907 21.0903 21.8322C20.8421 21.6856 20.6298 21.6497 20.4534 21.7245L22.1999 20.8512L22.7711 20.5641L26.0967 22.4871L28.0466 23.6116Z" fill="#876E24" stroke="#67541C" stroke-width="0.11215" stroke-linecap="round" stroke-linejoin="round"/>
<path d="M33.8933 23.8957V29.4882C33.8933 29.8052 33.7976 30.0146 33.6122 30.1222L33.5554 30.1492L31.2376 31.3095L29.162 32.3473L27.6309 33.1129C27.8163 33.0052 27.912 32.7959 27.912 32.4789V26.8864C27.912 26.8056 27.906 26.7248 27.894 26.6411C27.8581 26.4048 27.7684 26.1686 27.6309 25.9293C27.4454 25.6063 27.2121 25.3671 26.937 25.2056C26.6888 25.0621 26.4765 25.0262 26.3 25.1009L28.0465 24.2276L28.6178 23.9405L29.8589 24.6583C30.137 24.8168 30.3673 24.8437 30.5557 24.7361L31.9434 24.0422L33.7228 23.154C33.8364 23.4022 33.8933 23.6505 33.8933 23.8957Z" fill="#876E24" stroke="#67541C" stroke-width="0.11215" stroke-linecap="round" stroke-linejoin="round"/>
<path d="M36.8155 35.6489C36.8155 35.9659 36.7228 36.1753 36.5374 36.2829L36.4806 36.3099L30.5561 39.2736C30.7415 39.1659 30.8342 38.9565 30.8342 38.6395C30.8342 38.3225 30.7415 38.0025 30.5561 37.6796C30.3677 37.3566 30.1373 37.1173 29.8592 36.9588L12.3191 26.8295C12.0708 26.6859 11.8614 26.65 11.682 26.7248L14.4394 25.3461C14.4723 25.4179 14.5082 25.4897 14.5501 25.5614C14.7355 25.8814 14.9688 26.1237 15.2439 26.2822C15.5191 26.4407 15.7523 26.4676 15.9377 26.3629L17.6903 25.4867L19.5474 24.5596L20.1156 24.8885V27.9779C20.1156 28.2949 20.2084 28.6149 20.3968 28.9349C20.5822 29.2579 20.8154 29.4971 21.0906 29.6586C21.3657 29.8171 21.599 29.8441 21.7844 29.7364L23.3157 28.9708L25.3912 27.933L25.9624 28.265V31.3513C25.9624 31.6684 26.0551 31.9884 26.2435 32.3113C26.4289 32.6343 26.6622 32.8736 26.9373 33.0321C27.2125 33.1936 27.4458 33.2205 27.6312 33.1128L29.1624 32.3472L31.2379 31.3095L35.8405 33.9682C36.1187 34.1267 36.349 34.3659 36.5374 34.6889C36.7228 35.0119 36.8155 35.3319 36.8155 35.6489Z" fill="#F5C842" stroke="#67541C" stroke-width="0.11215" stroke-linecap="round" stroke-linejoin="round"/>
<path d="M11.6132 11.7925L11.5834 11.8074L11.6132 11.7925Z" fill="#F5C842"/>
<path d="M11.6132 11.7925L11.5834 11.8074" stroke="#67541C" stroke-width="0.11215" stroke-linecap="round" stroke-linejoin="round"/>
<path d="M16.2188 20.1364V25.7259C16.2188 26.043 16.1231 26.2553 15.9376 26.363C15.7522 26.4676 15.519 26.4407 15.2439 26.2822C14.9687 26.1237 14.7354 25.8815 14.55 25.5615C14.5081 25.4897 14.4722 25.4179 14.4393 25.3461C14.3257 25.0949 14.2689 24.8467 14.2689 24.6015V19.012C14.2689 18.6949 14.3616 18.4826 14.55 18.3749L14.6068 18.348C14.7833 18.2763 14.9956 18.3091 15.2439 18.4557C15.519 18.6142 15.7522 18.8564 15.9376 19.1764C16.1231 19.4994 16.2188 19.8194 16.2188 20.1364Z" fill="#F5C842" stroke="#67541C" stroke-width="0.11215" stroke-linecap="round" stroke-linejoin="round"/>
</svg>
