<svg width="48" height="48" viewBox="0 0 48 48" fill="none" xmlns="http://www.w3.org/2000/svg">
<rect width="48" height="48" rx="24" fill="#EBF7FF"/>
<path d="M27.9801 25.0206L27.8091 25.1089L26.2394 25.8924L25.2518 25.3241L27.3484 24.2758C27.5222 24.3972 27.6767 24.5544 27.8091 24.7448C27.8532 24.8027 27.8918 24.8634 27.9305 24.9296C27.947 24.96 27.9663 24.9903 27.9801 25.0206Z" fill="#229EFF" stroke="#0B0B0F" stroke-width="0.124138" stroke-linecap="round" stroke-linejoin="round"/>
<path d="M31.0839 23.4703C31.0205 23.1862 30.9156 22.8993 30.7694 22.6041C30.7667 22.5958 30.7612 22.5848 30.7529 22.5738C30.706 22.4744 30.6536 22.3751 30.5956 22.2758C30.2094 21.611 29.746 21.12 29.2025 20.8055L28.7971 20.571L27.8094 20.0027L22.8743 17.1531L21.8867 16.582L19.9115 15.4427L16.9488 13.7324L13.4067 11.6882C12.9184 11.4069 12.4963 11.3407 12.135 11.4869L12.0136 11.5476C11.6274 11.7682 11.4315 12.1903 11.4315 12.8138V26.4055C11.4315 27.0289 11.6274 27.6744 12.0136 28.342C12.3998 29.0069 12.8632 29.4979 13.4067 29.8124L29.2025 38.9297C29.746 39.2442 30.2094 39.2911 30.5956 39.0704C30.9818 38.8497 31.175 38.4276 31.175 37.8042V24.2124C31.175 23.9696 31.1446 23.7213 31.0839 23.4703ZM16.3694 25.8565C16.3694 26.1793 16.2729 26.3945 16.0853 26.5021C15.895 26.6096 15.6605 26.582 15.3819 26.4193C15.1005 26.2593 14.866 26.0165 14.6784 25.6882C14.4881 25.3627 14.3943 25.04 14.3943 24.7172V17.92C14.3943 17.6 14.4881 17.3848 14.6784 17.2772C14.866 17.1697 15.1005 17.1972 15.3819 17.3572C15.6605 17.52 15.895 17.7627 16.0853 18.091C16.2729 18.4165 16.3694 18.7393 16.3694 19.0621V25.8565ZM22.2922 29.2772C22.2922 29.5972 22.1956 29.8124 22.0081 29.92C21.8177 30.0276 21.5832 30.0027 21.3046 29.84L18.3418 28.1296C18.0632 27.9696 17.8288 27.7241 17.6384 27.3986C17.4508 27.0731 17.357 26.7476 17.357 26.4276V19.6303C17.357 19.3103 17.4508 19.0951 17.6384 18.9876C17.8288 18.88 18.0632 18.9076 18.3418 19.0676L19.9115 19.9724L21.3046 20.7779C21.346 20.8028 21.3874 20.8276 21.426 20.8552C21.5998 20.9765 21.7543 21.1338 21.8867 21.3241C21.9308 21.382 21.9694 21.4427 22.0081 21.5089C22.0246 21.5393 22.0439 21.5696 22.0577 21.6027C22.2122 21.8979 22.2922 22.1903 22.2922 22.48V29.2772ZM28.215 32.6979C28.215 33.0179 28.1212 33.2331 27.9308 33.3407C27.7405 33.4482 27.506 33.4207 27.2274 33.2607L24.2646 31.5503C23.986 31.3876 23.7515 31.1448 23.5639 30.8193C23.3736 30.491 23.2798 30.1682 23.2798 29.8482V23.051C23.2798 22.731 23.3736 22.5158 23.5639 22.4082C23.7515 22.3007 23.986 22.3255 24.2646 22.4882L24.8467 22.8248L25.8343 23.3931L27.2274 24.1986C27.2688 24.2234 27.3102 24.2482 27.3488 24.2758C27.5226 24.3972 27.677 24.5544 27.8094 24.7448C27.8536 24.8027 27.8922 24.8634 27.9308 24.9296C27.9474 24.96 27.9667 24.9903 27.9805 25.0207C28.1377 25.3158 28.215 25.611 28.215 25.9007V32.6979Z" fill="#0D92F4" stroke="#0B0B0F" stroke-width="0.124138" stroke-linecap="round" stroke-linejoin="round"/>
<path d="M16.3696 19.062V25.8565C16.3696 26.1792 16.273 26.3944 16.0854 26.502C15.8951 26.6096 15.6606 26.582 15.382 26.4192C15.1006 26.2592 14.8661 26.0165 14.6785 25.6882C14.4882 25.3627 14.3944 25.0399 14.3944 24.7172V17.9199C14.3944 17.5999 14.4882 17.3848 14.6785 17.2772C14.8661 17.1696 15.1006 17.1972 15.382 17.3572C15.6606 17.5199 15.8951 17.7627 16.0854 18.091C16.273 18.4165 16.3696 18.7392 16.3696 19.062Z" fill="#229EFF" stroke="#0B0B0F" stroke-width="0.124138" stroke-linecap="round" stroke-linejoin="round"/>
<path d="M22.2925 26.0165V29.2772C22.2925 29.5972 22.1959 29.8124 22.0083 29.92C21.818 30.0275 21.5835 30.0027 21.3049 29.84L18.3421 28.1296C18.0635 27.9696 17.829 27.7241 17.6387 27.3986C17.4511 27.0731 17.3573 26.7475 17.3573 26.4275V19.6303C17.3573 19.3103 17.4511 19.0951 17.6387 18.9875C17.829 18.88 18.0635 18.9076 18.3421 19.0676L19.9118 19.9724L21.3049 20.7779C21.3463 20.8027 21.3876 20.8276 21.4263 20.8552L19.9118 21.6138L19.3297 21.9034V26.4358L20.3173 27.0041L22.2925 26.0165Z" fill="#1B69A2" stroke="#0B0B0F" stroke-width="0.124138" stroke-linecap="round" stroke-linejoin="round"/>
<path d="M22.0576 21.6027L21.8866 21.691L20.317 22.4744L19.939 22.2565L19.3293 21.9034L19.9114 21.6138L21.4259 20.8552C21.5997 20.9765 21.7542 21.1338 21.8866 21.3241C21.9307 21.382 21.9693 21.4427 22.008 21.5089C22.0245 21.5393 22.0439 21.5696 22.0576 21.6027Z" fill="#229EFF" stroke="#0B0B0F" stroke-width="0.124138" stroke-linecap="round" stroke-linejoin="round"/>
<path d="M20.317 22.4744V27.0041L19.3293 26.4358V21.9034L19.939 22.2565L20.317 22.4744Z" fill="#229EFF" stroke="#0B0B0F" stroke-width="0.124138" stroke-linecap="round" stroke-linejoin="round"/>
<path d="M26.2394 25.8924V30.4248L25.2518 29.8538V25.3241L26.2394 25.8924Z" fill="#229EFF" stroke="#0B0B0F" stroke-width="0.124138" stroke-linecap="round" stroke-linejoin="round"/>
<path d="M28.215 29.4372V32.6979C28.215 33.0179 28.1212 33.233 27.9308 33.3406C27.7405 33.4482 27.506 33.4207 27.2274 33.2607L24.2646 31.5503C23.986 31.3875 23.7515 31.1448 23.5639 30.8192C23.3736 30.491 23.2798 30.1682 23.2798 29.8482V23.051C23.2798 22.731 23.3736 22.5158 23.5639 22.4082C23.7515 22.3006 23.986 22.3255 24.2646 22.4882L24.8467 22.8248L25.8343 23.393L27.2274 24.1986C27.2688 24.2234 27.3101 24.2482 27.3488 24.2758L25.2522 25.3241V29.8537L26.2398 30.4248L28.215 29.4372Z" fill="#1B69A2" stroke="#0B0B0F" stroke-width="0.124138" stroke-linecap="round" stroke-linejoin="round"/>
<path d="M36.6919 21.4537V35.0455C36.6919 35.669 36.4988 36.091 36.1126 36.3117L35.9912 36.3724L30.5953 39.0703C30.9815 38.8496 31.1747 38.4276 31.1747 37.8041V24.2124C31.1747 23.9696 31.1443 23.7213 31.0836 23.4703C31.0202 23.1861 30.9153 22.8993 30.7691 22.6041V22.5655L30.7526 22.5737C30.7057 22.4744 30.6532 22.3751 30.5953 22.2758C30.2091 21.611 29.7457 21.1199 29.2022 20.8055L28.7967 20.571L27.8091 20.0027L22.874 17.153L21.8864 16.582L19.9112 15.4427L16.9484 13.7324L13.4064 11.6882C12.9181 11.4068 12.496 11.3406 12.1346 11.4868L17.5305 8.78891C17.9167 8.56822 18.3801 8.61512 18.9236 8.92961L34.7195 18.0468C35.2629 18.3613 35.7264 18.8524 36.1126 19.5172C36.4988 20.1848 36.6919 20.8303 36.6919 21.4537Z" fill="#1B69A2" stroke="#0B0B0F" stroke-width="0.124138" stroke-linecap="round" stroke-linejoin="round"/>
<path d="M28.2147 25.9006V29.4372L26.2395 30.4248V25.8924L27.8092 25.1089L27.9802 25.0206C28.1374 25.3158 28.2147 25.611 28.2147 25.9006Z" fill="#229EFF" stroke="#0B0B0F" stroke-width="0.124138" stroke-linecap="round" stroke-linejoin="round"/>
<path d="M22.2921 22.48V26.0165L20.3169 27.0041V22.4744L21.8866 21.691L22.0576 21.6027C22.2121 21.8979 22.2921 22.1903 22.2921 22.48Z" fill="#229EFF" stroke="#0B0B0F" stroke-width="0.124138" stroke-linecap="round" stroke-linejoin="round"/>
</svg>
