<svg width="49" height="48" viewBox="0 0 49 48" fill="none" xmlns="http://www.w3.org/2000/svg">
<rect x="0.666626" width="48" height="48" rx="24" fill="#D4FFED"/>
<path d="M28.3053 33.6303C28.3053 34.8772 28.0819 35.7876 27.6377 36.3642C27.4832 36.5683 27.2984 36.7283 27.0888 36.8497L26.9122 36.938C25.9826 37.3407 24.8322 37.2607 23.4612 36.698V38.3724C23.4612 38.8055 23.3343 39.0924 23.0777 39.2386C22.8239 39.3821 22.5095 39.3462 22.1343 39.1311C21.7564 38.9131 21.4419 38.5849 21.1881 38.1462C20.9343 37.7076 20.8074 37.2718 20.8074 36.8414V35.0897C19.8115 34.2621 18.937 33.3131 18.1839 32.2428C17.4336 31.1752 16.824 29.9338 16.3605 28.5241C16.206 28.08 16.2005 27.7021 16.344 27.3931C16.4102 27.2524 16.4984 27.1476 16.6115 27.0786L16.6998 27.0345C16.8184 26.9848 16.9591 26.9683 17.1219 26.9848C17.4336 27.0124 17.7536 27.2028 18.0847 27.5586C18.4184 27.9172 18.6722 28.3366 18.8488 28.8193C19.224 29.7986 19.7012 30.651 20.275 31.3766C20.8515 32.1021 21.5577 32.7062 22.3991 33.1917C23.3067 33.7159 24.0736 33.9255 24.7053 33.8179C25.3343 33.7131 25.6515 33.1641 25.6515 32.1766C25.6515 32.0221 25.6432 31.8676 25.6295 31.7131C25.5577 30.9903 25.3205 30.3007 24.9205 29.6414C24.4929 28.9324 23.566 27.8841 22.137 26.4966C21.9467 26.309 21.7453 26.1159 21.5357 25.9172C21.2267 25.6248 20.9315 25.3379 20.6529 25.0593C19.2239 23.6248 18.2115 22.3366 17.6212 21.2C16.9122 19.84 16.5591 18.4745 16.5591 17.1034C16.5591 15.4538 17.0226 14.4386 17.9522 14.0607C18.8819 13.6855 19.8336 13.7131 20.8074 14.149V12.4717C20.8074 12.0414 20.9343 11.7545 21.1881 11.6083L21.2653 11.5697C21.5053 11.4703 21.795 11.52 22.1343 11.7159C22.2088 11.76 22.2805 11.8069 22.3495 11.8621C22.4295 11.9172 22.5067 11.9834 22.5812 12.0579C22.766 12.2345 22.9315 12.4497 23.0777 12.7007C23.3343 13.1393 23.4612 13.5752 23.4612 14.0055V15.68C23.9964 16.0855 24.4846 16.5324 24.9315 17.0152C25.1853 17.291 25.4253 17.5779 25.6515 17.8786C26.0681 18.4359 26.435 19.0124 26.7522 19.611C26.9067 19.8979 27.0474 20.1931 27.1771 20.491C27.3757 20.9379 27.4143 21.3269 27.2929 21.6634C27.2267 21.8455 27.1247 21.9724 26.984 22.0414L26.9508 22.0579C26.8377 22.1076 26.7026 22.1241 26.5453 22.1076C26.2364 22.08 25.9164 21.9034 25.5853 21.5724C25.2515 21.2386 24.9425 20.8138 24.6556 20.2924C24.3687 19.771 24.0295 19.3021 23.6432 18.8883C23.4832 18.7172 23.3095 18.5545 23.1164 18.4C22.8433 18.1738 22.537 17.9669 22.2005 17.771C21.2267 17.2083 20.4846 17.029 19.977 17.2303C19.4667 17.4317 19.2129 17.8979 19.2129 18.6345C19.2129 19.4731 19.544 20.3255 20.2088 21.189C20.8736 22.0552 22.024 23.2276 23.6598 24.7062C25.1853 26.0938 26.3412 27.5669 27.1274 29.1255C27.3205 29.509 27.4915 29.8869 27.635 30.2621C28.0819 31.4179 28.3053 32.5407 28.3053 33.6303Z" fill="#1BC47D" stroke="#001422" stroke-width="0.127587" stroke-linecap="round" stroke-linejoin="round"/>
<path d="M28.9782 11.2469V12.9214L26.0265 14.3972L24.9396 14.9407L23.461 15.68V14.0055C23.461 13.5752 23.3341 13.1393 23.0775 12.7007C22.9313 12.4496 22.7658 12.2345 22.5809 12.0579C22.5065 11.9834 22.4293 11.9172 22.3493 11.8621C22.2803 11.8069 22.2086 11.76 22.1341 11.7158C21.7948 11.52 21.5051 11.4703 21.2651 11.5696L26.7051 8.84965C26.9589 8.70345 27.2734 8.73931 27.6513 8.95724C28.0265 9.17517 28.341 9.50344 28.5948 9.94206C28.8513 10.3807 28.9782 10.8165 28.9782 11.2469Z" fill="#1BC47D" stroke="#001422" stroke-width="0.127587" stroke-linecap="round" stroke-linejoin="round"/>
<path d="M33.8221 30.8717C33.8221 32.6758 33.3559 33.7765 32.429 34.1793L28.9531 35.9172L27.8469 36.4717H27.8441L27.0883 36.8497C27.2979 36.7283 27.4827 36.5683 27.6372 36.3641C28.0814 35.7876 28.3048 34.8772 28.3048 33.6303C28.3048 32.5407 28.0814 31.4179 27.6345 30.262C27.491 29.8868 27.32 29.5089 27.1269 29.1255C26.3407 27.5669 25.1848 26.0938 23.6593 24.7062C22.0235 23.2276 20.8731 22.0551 20.2083 21.1889C19.5435 20.3255 19.2124 19.4731 19.2124 18.6345C19.2124 17.8979 19.4662 17.4317 19.9765 17.2303C20.4841 17.0289 21.2262 17.2082 22.2 17.771C22.5366 17.9669 22.8428 18.1737 23.1159 18.3999C23.309 18.5544 23.4828 18.7172 23.6428 18.8882C24.029 19.302 24.3683 19.771 24.6552 20.2924C24.9421 20.8137 25.2511 21.2386 25.5848 21.5724C25.9159 21.9034 26.2359 22.08 26.5448 22.1076C26.7021 22.1241 26.8373 22.1075 26.9504 22.0579L26.9835 22.0413L28.4704 21.2993C28.6938 21.5089 28.9311 21.7241 29.1766 21.9476C30.7021 23.3351 31.858 24.8083 32.6442 26.3669C33.4304 27.9227 33.8221 29.4262 33.8221 30.8717Z" fill="#037B48" stroke="#001422" stroke-width="0.127587" stroke-linecap="round" stroke-linejoin="round"/>
<path d="M28.9535 35.9172C28.9038 36.1848 28.7852 36.3724 28.5949 36.48L23.0776 39.2386C23.3342 39.0924 23.4611 38.8055 23.4611 38.3724V36.6979C24.8321 37.2607 25.9825 37.3407 26.9121 36.9379L27.8445 36.4717H27.8473L28.9535 35.9172Z" fill="#1BC47D" stroke="#001422" stroke-width="0.127587" stroke-linecap="round" stroke-linejoin="round"/>
<path d="M32.81 18.9048C32.7521 19.0731 32.6555 19.1944 32.5314 19.2689L32.4873 19.291L28.4707 21.2993L26.9838 22.0413C27.1245 21.9724 27.2265 21.8455 27.2928 21.6634C27.4141 21.3268 27.3755 20.9379 27.1769 20.491C27.0473 20.1931 26.9065 19.8979 26.7521 19.611C26.4348 19.0124 26.0679 18.4358 25.6514 17.8786C25.4252 17.5779 25.1851 17.291 24.9313 17.0151C24.4845 16.5324 23.9962 16.0855 23.4611 15.6799L24.9397 14.9407L26.0265 14.3972L28.9783 12.9213C29.8169 13.5586 30.5479 14.2924 31.1686 15.1199C31.7865 15.9475 32.2969 16.8165 32.6942 17.7324C32.8928 18.1793 32.9314 18.5682 32.81 18.9048Z" fill="#1BC47D" stroke="#001422" stroke-width="0.127587" stroke-linecap="round" stroke-linejoin="round"/>
<path d="M20.807 12.6345V14.1489C19.8332 13.7131 18.8816 13.6855 17.9519 14.0607L20.807 12.6345Z" fill="#1BC47D" stroke="#001422" stroke-width="0.127587" stroke-linecap="round" stroke-linejoin="round"/>
<path d="M25.651 32.1765C25.651 33.1641 25.3338 33.7131 24.7049 33.8179C24.0731 33.9255 23.3062 33.7158 22.3986 33.1917C21.5573 32.7062 20.851 32.102 20.2745 31.3765C19.7007 30.651 19.2235 29.7986 18.8483 28.8193C18.6718 28.3365 18.418 27.9172 18.0842 27.5586C17.7531 27.2027 17.4331 27.0124 17.1214 26.9848C16.9587 26.9682 16.818 26.9848 16.6993 27.0344L20.6524 25.0593C20.931 25.3379 21.2262 25.6248 21.5352 25.9172C21.7449 26.1158 21.9462 26.3089 22.1366 26.4965C23.5655 27.8841 24.4925 28.9324 24.92 29.6413C25.32 30.3006 25.5572 30.9903 25.629 31.7131C25.6427 31.8675 25.651 32.022 25.651 32.1765Z" fill="#037B48" stroke="#001422" stroke-width="0.127587" stroke-linecap="round" stroke-linejoin="round"/>
</svg>
