<svg width="1210" height="925" viewBox="0 0 1210 925" fill="none" xmlns="http://www.w3.org/2000/svg">
<g opacity="0.5">
<rect x="725.564" y="763.309" width="80.2262" height="80.2262" fill="#1E3D34" fill-opacity="0.2"/>
<rect x="322.14" y="763.309" width="80.2262" height="80.2262" fill="#1E3D34" fill-opacity="0.1"/>
<rect x="1048" y="198" width="80.2262" height="79.0801" fill="#1E3D34" fill-opacity="0.15"/>
<rect x="402.368" y="441.207" width="80.2262" height="79.0801" fill="#1E3D34" fill-opacity="0.05"/>
<rect x="967.388" y="279.659" width="80.2262" height="79.0801" fill="#1E3D34" fill-opacity="0.15"/>
<rect x="321.995" y="441.207" width="80.2262" height="79.0801" fill="#1E3D34" fill-opacity="0.05"/>
<rect x="241.914" y="763.309" width="80.2262" height="80.2262" fill="#1E3D34" fill-opacity="0.1"/>
<rect x="241.914" y="843.535" width="80.2262" height="81.3723" fill="#1E3D34" fill-opacity="0.1"/>
<rect x="80.3157" y="683.082" width="80.2262" height="80.2262" fill="#1E3D34" fill-opacity="0.1"/>
<rect x="806.059" y="-42.8526" width="80.2262" height="79.5062" fill="#1E3D34" fill-opacity="0.05"/>
<rect x="6.10352e-05" y="38.0001" width="81.3723" height="80.2262" fill="#1E3D34" fill-opacity="0.1"/>
<rect x="-81.2828" y="37.8344" width="81.3723" height="80.2262" fill="#1E3D34" fill-opacity="0.1"/>
<rect x="81" y="117" width="81.3723" height="82.5184" fill="#1E3D34" fill-opacity="0.1"/>
<rect x="322.14" y="-43.5378" width="81.3723" height="80.2262" fill="#1E3D34" fill-opacity="0.15"/>
<rect x="80.3157" y="278.513" width="80.2262" height="81.3723" fill="#1E3D34" fill-opacity="0.1"/>
<rect x="1048.76" y="683.082" width="80.2262" height="80.2262" fill="#1E3D34" fill-opacity="0.05"/>
<rect x="1128.99" y="763.309" width="80.2262" height="80.2262" fill="#1E3D34" fill-opacity="0.05"/>
</g>
</svg>
