<svg xmlns="http://www.w3.org/2000/svg" width="110" height="94" viewBox="0 0 110 94" fill="none">
  <path d="M77.2934 87.457L77.2529 87.6939C75.0703 87.5535 72.9032 87.0811 70.8051 86.3573C68.735 85.5772 66.7214 84.5472 64.9028 83.2374C63.0848 81.9157 61.4492 80.3277 60.0361 78.5604C59.6301 78.086 59.2526 77.5852 58.8761 77.0704C59.3086 75.8025 59.6441 74.4937 59.8821 73.1844C60.4277 74.5778 61.1407 75.8866 61.9522 77.1531C63.0993 78.8661 64.4843 80.4257 66.0779 81.7614C69.197 84.5193 73.0847 86.4678 77.2934 87.457Z" fill="white"/>
  <path d="M69.1409 92.7891L68.9728 93.1789C63.7976 91.313 59.1689 87.7347 55.9523 83.0985C55.1553 81.9565 54.4422 80.7458 53.8267 79.4649C53.7427 79.3121 53.6727 79.1578 53.6032 79.0049C50.5961 72.5029 50.2746 64.6359 53.0997 57.8829C53.3792 58.4256 53.6172 58.9826 53.8407 59.5397C54.3022 60.7235 54.6938 61.9213 55.0018 63.0901C54.5818 64.8171 54.3302 66.5998 54.2882 68.3954C54.2882 70.0243 54.3302 71.681 54.6378 73.2969C54.7498 74.0626 54.8898 74.8287 55.0853 75.5804C55.2953 76.4292 55.5608 77.2641 55.8553 78.086C56.2043 79.117 56.6373 80.1046 57.1414 81.0799C59.658 86.0501 63.9386 90.2417 69.1409 92.7891Z" fill="white"/>
  <path d="M100.425 25.5654L100.411 25.7043C97.3213 25.7322 94.3007 26.6651 91.8251 28.3094C90.5806 29.1298 89.503 30.1737 88.525 31.261C85.9509 34.0453 84.4543 37.6649 81.3082 39.9206C80.7062 40.3387 80.0906 40.7425 79.4481 41.0904C83.0002 41.2293 86.4819 42.0512 89.6295 43.5691L89.476 43.9449C82.9157 41.7456 75.6439 42.0512 69.6017 44.9341C66.5681 46.3116 63.8265 48.2755 61.5889 50.6844C59.9808 52.3551 58.6102 54.2488 57.5337 56.2814C57.0012 55.1957 56.3727 54.1368 55.6876 53.1208C56.7927 51.4785 58.0647 49.9606 59.4768 48.5956C59.6728 48.4004 59.8968 48.2476 60.0923 48.0664C59.9108 47.9136 59.7288 47.7737 59.5613 47.6064C58.8763 46.9807 58.2887 46.2558 57.8127 45.4628C56.9322 43.8469 56.6247 42.0094 56.9177 40.3243H57.1277C57.4632 41.9532 58.1622 43.4163 59.1838 44.5299C59.6583 45.1138 60.2178 45.6017 60.8333 45.992C61.2113 46.2011 61.6029 46.3678 62.0089 46.4928C62.8609 45.867 63.757 45.2821 64.694 44.739C62.9454 43.2351 61.4354 41.4802 60.2883 39.5178C58.8203 37.081 57.8687 34.3375 57.5052 31.5527C57.1842 28.754 57.4772 25.8995 58.3167 23.2535C59.1978 20.6231 60.6093 18.1867 62.4694 16.1945L62.6244 16.3209C59.4358 20.6778 58.1762 26.2066 59.1693 31.3018C59.5893 33.6132 60.4558 35.8131 61.7004 37.7909C61.7144 36.969 61.8129 36.161 61.9664 35.3541C62.2879 33.7805 62.9454 32.2765 63.8125 30.9255C65.4905 28.1969 68.0506 26.0802 70.9447 24.9118L71.0013 25.0367C68.3156 26.5546 66.1341 28.8242 64.7775 31.4701C64.0925 32.7913 63.6585 34.2265 63.3374 35.6463C63.0709 36.7599 62.9599 37.874 62.8609 39.0016C62.8469 39.0997 62.8469 39.2107 62.8609 39.3087C63.0019 39.9768 67.0996 43.6238 67.3646 43.3321C68.7212 41.8282 69.8962 40.1854 70.7772 38.3898C71.9098 36.1063 72.7213 33.6416 72.9583 31.0519C73.4624 25.8995 71.6578 20.4971 68.0646 16.4877L68.2181 16.3348C70.2597 18.1444 71.8958 20.4284 73.0288 22.9618C73.4204 23.8947 73.7274 24.8555 73.9799 25.8447C74.3434 24.5499 74.9024 23.3237 75.6154 22.2101C77.308 19.4816 79.8681 17.3643 82.7482 16.1945L82.8182 16.3209C80.1331 17.8373 77.9375 20.1073 76.595 22.7527C75.896 24.0754 75.4759 25.5092 75.1409 26.9304C74.8194 28.281 74.6784 29.6729 74.6374 31.0798V31.1345C74.6374 31.2047 74.6234 31.261 74.6234 31.3297C74.6094 31.7195 74.5814 32.0958 74.5389 32.4717C75.2804 31.4138 76.2315 30.5088 77.2795 29.7571C79.4481 28.169 82.1197 27.3486 84.7208 27.375V27.5154C82.1887 27.8912 79.8116 29.0054 77.98 30.6337C77.043 31.4417 76.2875 32.4154 75.6014 33.4046C74.2869 35.2296 73.6864 37.4011 72.6508 39.3356C72.1198 40.3243 71.4758 41.2572 70.7772 42.1483C71.9238 41.8282 73.0708 41.5634 74.2319 41.3961C76.3285 40.6036 78.3151 39.6005 80.0496 38.2359C82.0772 36.6912 83.9093 34.8383 85.2658 32.6245C88.0065 28.2113 88.776 22.586 87.3219 17.3927L87.5314 17.3225C88.566 19.8435 89.014 22.6138 88.9025 25.3847C88.832 26.7916 88.608 28.169 88.2445 29.534C89.1395 28.6698 90.161 27.946 91.2516 27.3611C94.0622 25.7884 97.3213 25.1896 100.425 25.5654Z" fill="white"/>
  <path d="M52.1069 77.1951C51.6873 77.808 51.2398 78.3919 50.7643 78.9629C49.3377 80.7316 47.7157 82.3182 45.8976 83.6409C44.0655 84.9497 42.0654 85.9951 39.9819 86.7607C37.8978 87.4846 35.7162 87.9575 33.5486 88.0964L33.5066 87.8604C37.7163 86.8718 41.6039 84.9218 44.7226 82.1654C46.3031 80.8282 47.6877 79.2696 48.8482 77.571C49.7153 76.2199 50.4568 74.8006 51.0158 73.3246C51.2818 74.6463 51.6453 75.9421 52.1069 77.1951Z" fill="white"/>
  <path d="M19.5493 27.7705C20.6309 28.3595 21.6574 29.0818 22.5535 29.9395C22.1849 28.5825 21.9609 27.1921 21.8884 25.7992C21.7784 23.0258 22.2359 20.2525 23.271 17.733L23.4695 17.8007C22.0204 22.989 22.794 28.6153 25.5311 33.026C26.8871 35.2398 28.7127 37.0982 30.7418 38.6474C32.4829 40.0035 34.4685 41.0131 36.5675 41.7981C37.7291 41.9728 38.8776 42.2302 40.0127 42.5498C39.3182 41.6667 38.6801 40.7353 38.1501 39.7436C37.1156 37.8106 36.5135 35.6326 35.2005 33.8111C34.504 32.8184 33.7509 31.8497 32.8229 31.0367C30.9833 29.4054 28.6127 28.2982 26.0716 27.9169L26.0816 27.778C28.6827 27.7591 31.3408 28.5795 33.5214 30.1665C34.5645 30.9093 35.52 31.8153 36.2495 32.8836C36.219 32.5073 36.183 32.1314 36.171 31.7312C36.169 31.67 36.159 31.6077 36.158 31.5465C36.158 31.5276 36.1605 31.5097 36.16 31.4907C36.11 30.0834 35.982 28.693 35.655 27.3424C35.3245 25.9112 34.895 24.4864 34.2074 23.1632C32.8534 20.5153 30.6673 18.2418 27.9817 16.7214L28.0427 16.595C30.9338 17.7663 33.4934 19.8816 35.1805 22.6141C35.8875 23.7332 36.4555 24.9593 36.8146 26.2437C37.0681 25.2635 37.3696 24.2987 37.7681 23.3738C38.8976 20.8374 40.5377 18.5499 42.5828 16.7443L42.7313 16.8922C39.1316 20.9101 37.3321 26.3 37.8341 31.4599C38.0696 34.0431 38.8846 36.5118 40.0187 38.7943C40.8932 40.5974 42.0718 42.2352 43.4328 43.7416C43.6918 44.0293 47.7965 40.3898 47.933 39.7142C47.953 39.6137 47.9445 39.5106 47.9355 39.4096C47.84 38.282 47.731 37.1629 47.464 36.0592C47.1335 34.628 46.704 33.2032 46.0164 31.8805C44.6624 29.2336 42.4763 26.9601 39.7907 25.4382L39.8517 25.3133C42.7428 26.4832 45.3024 28.5989 46.9895 31.3314C47.8435 32.6835 48.5135 34.1845 48.8315 35.7675C48.9856 36.568 49.0816 37.382 49.1011 38.1954C50.3386 36.225 51.2136 34.0192 51.6242 31.7058C52.6257 26.6171 51.3591 21.0798 48.1675 16.7329L48.3295 16.5999C50.1896 18.5947 51.5992 21.0301 52.4762 23.6645C53.3227 26.3074 53.6067 29.1545 53.2837 31.9532C52.9272 34.7455 51.9822 37.483 50.5041 39.9193C49.3606 41.8887 47.8495 43.6381 46.1069 45.1524C47.033 45.6876 47.932 46.2661 48.7935 46.9048C49.1906 46.7684 49.5811 46.6011 49.9586 46.3975C50.5771 46.0062 51.1411 45.5143 51.6167 44.9359C52.6267 43.8232 53.3337 42.3602 53.6697 40.7353L53.8763 40.7363C54.1758 42.4199 53.8613 44.2588 52.9767 45.8698C52.5127 46.6563 51.9222 47.3827 51.2336 48.0144C51.0706 48.1802 50.8801 48.3181 50.7036 48.4684C50.9056 48.6481 51.1236 48.8084 51.3206 48.9946C53.9623 51.5459 56.1083 54.624 57.5844 58.0101C60.5335 64.8218 60.2445 72.8213 57.1939 79.4099C54.1438 86.0215 48.44 91.1983 41.8158 93.5829L41.6523 93.1981C47.864 90.1444 52.7547 84.7779 54.9463 78.4924C55.4978 76.9288 55.9398 75.3308 56.1638 73.7004C56.4669 72.0835 56.5104 70.4342 56.5054 68.8019C56.4249 65.5237 55.6758 62.3123 54.4848 59.2905C53.2932 56.2628 51.4912 53.4576 49.2106 51.0899C46.966 48.685 44.2239 46.7171 41.1897 45.3356C35.1465 42.4557 27.8792 42.1521 21.3234 44.3584L21.1654 43.9711C24.314 42.4567 27.8012 41.6398 31.3473 41.5024C30.7058 41.143 30.0828 40.7492 29.4857 40.3211C26.3471 38.0679 24.8486 34.4458 22.277 31.67C21.2879 30.5792 20.2159 29.5433 18.9683 28.7214C16.4902 27.0656 13.4691 26.1392 10.3795 26.1123L10.3715 25.9734C13.4691 25.5951 16.7397 26.2019 19.5493 27.7705Z" fill="white"/>
  <mask id="mask0_7616_11267" style="mask-type:luminance" maskUnits="userSpaceOnUse" x="83" y="43" width="8" height="8">
    <path d="M83.8442 43.6074H90.6285V50.2344H83.8442V43.6074Z" fill="white"/>
  </mask>
  <g mask="url(#mask0_7616_11267)">
    <mask id="mask1_7616_11267" style="mask-type:luminance" maskUnits="userSpaceOnUse" x="83" y="43" width="8" height="8">
      <path d="M85.8481 48.2566C84.5666 46.9822 83.928 45.3 83.946 43.6229C85.6306 43.606 87.3187 44.2407 88.6002 45.5166C89.8853 46.796 90.5188 48.4731 90.5023 50.1503C88.8177 50.1667 87.1332 49.536 85.8481 48.2566Z" fill="white"/>
    </mask>
    <g mask="url(#mask1_7616_11267)">
      <mask id="mask2_7616_11267" style="mask-type:luminance" maskUnits="userSpaceOnUse" x="83" y="43" width="8" height="8">
        <path d="M85.8481 48.2566C84.5666 46.9822 83.928 45.3 83.946 43.6229C85.6306 43.606 87.3187 44.2407 88.6002 45.5166C89.8853 46.796 90.5188 48.4731 90.5023 50.1503C88.8177 50.1667 87.1332 49.536 85.8481 48.2566Z" fill="white"/>
      </mask>
      <g mask="url(#mask2_7616_11267)">
        <path d="M83.9276 50.1658H90.5184V43.605H83.9276V50.1658Z" fill="url(#paint0_linear_7616_11267)"/>
      </g>
    </g>
  </g>
  <mask id="mask3_7616_11267" style="mask-type:luminance" maskUnits="userSpaceOnUse" x="76" y="44" width="8" height="6">
    <path d="M76.2911 44.2446H83.7154V49.3423H76.2911V44.2446Z" fill="white"/>
  </mask>
  <g mask="url(#mask3_7616_11267)">
    <mask id="mask4_7616_11267" style="mask-type:luminance" maskUnits="userSpaceOnUse" x="76" y="44" width="8" height="6">
      <path d="M79.0261 48.3885C77.5805 47.4835 76.641 46.0702 76.3044 44.5254C77.8495 44.1585 79.5356 44.3915 80.9791 45.2965C82.4297 46.2051 83.3642 47.6149 83.7007 49.1606C82.1557 49.5265 80.4751 49.297 79.0261 48.3885Z" fill="white"/>
    </mask>
    <g mask="url(#mask4_7616_11267)">
      <mask id="mask5_7616_11267" style="mask-type:luminance" maskUnits="userSpaceOnUse" x="76" y="44" width="8" height="6">
        <path d="M79.0261 48.3885C77.5805 47.4835 76.641 46.0702 76.3044 44.5254C77.8495 44.1585 79.5356 44.3915 80.9791 45.2965C82.4297 46.2051 83.3642 47.6149 83.7007 49.1606C82.1557 49.5265 80.4751 49.297 79.0261 48.3885Z" fill="white"/>
      </mask>
      <g mask="url(#mask5_7616_11267)">
        <path d="M76.3046 49.526H83.7009V44.158H76.3046V49.526Z" fill="#1E3D34"/>
      </g>
    </g>
  </g>
  <mask id="mask6_7616_11267" style="mask-type:luminance" maskUnits="userSpaceOnUse" x="70" y="46" width="8" height="4">
    <path d="M70.7863 46.1564H77.1865V49.7247H70.7863V46.1564Z" fill="white"/>
  </mask>
  <g mask="url(#mask6_7616_11267)">
    <mask id="mask7_7616_11267" style="mask-type:luminance" maskUnits="userSpaceOnUse" x="70" y="46" width="8" height="4">
      <path d="M73.3486 49.2177C72.1235 48.6721 71.2365 47.6759 70.8035 46.511C71.9645 46.056 73.3021 46.052 74.5261 46.5976C75.7547 47.1457 76.6382 48.1394 77.0707 49.3058C75.9097 49.7593 74.5771 49.7658 73.3486 49.2177Z" fill="white"/>
    </mask>
    <g mask="url(#mask7_7616_11267)">
      <mask id="mask8_7616_11267" style="mask-type:luminance" maskUnits="userSpaceOnUse" x="70" y="46" width="8" height="4">
        <path d="M73.3486 49.2177C72.1235 48.6721 71.2365 47.6759 70.8035 46.511C71.9645 46.056 73.3021 46.052 74.5261 46.5976C75.7547 47.1457 76.6382 48.1394 77.0707 49.3058C75.9097 49.7593 74.5771 49.7658 73.3486 49.2177Z" fill="white"/>
      </mask>
      <g mask="url(#mask8_7616_11267)">
        <path d="M70.8036 49.7656H77.0708V46.0519H70.8036V49.7656Z" fill="#1E3D34"/>
      </g>
    </g>
  </g>
  <mask id="mask9_7616_11267" style="mask-type:luminance" maskUnits="userSpaceOnUse" x="90" y="43" width="10" height="5">
    <path d="M90.5 43.098H99.9724V47.6859H90.5V43.098Z" fill="white"/>
  </mask>
  <g mask="url(#mask9_7616_11267)">
    <mask id="mask10_7616_11267" style="mask-type:luminance" maskUnits="userSpaceOnUse" x="90" y="43" width="10" height="5">
      <path d="M94.6267 47.4078C92.7942 46.8826 91.3451 45.6555 90.5026 44.1008C92.0461 43.2301 93.9292 42.9588 95.7623 43.485C97.6019 44.0127 99.0444 45.2373 99.8864 46.7935C98.3429 47.6637 96.4663 47.9365 94.6267 47.4078Z" fill="white"/>
    </mask>
    <g mask="url(#mask10_7616_11267)">
      <mask id="mask11_7616_11267" style="mask-type:luminance" maskUnits="userSpaceOnUse" x="90" y="43" width="10" height="5">
        <path d="M94.6267 47.4078C92.7942 46.8826 91.3451 45.6555 90.5026 44.1008C92.0461 43.2301 93.9292 42.9588 95.7623 43.485C97.6019 44.0127 99.0444 45.2373 99.8864 46.7935C98.3429 47.6637 96.4663 47.9365 94.6267 47.4078Z" fill="white"/>
      </mask>
      <g mask="url(#mask11_7616_11267)">
        <path d="M90.5027 47.9364H99.8866V42.9587H90.5027V47.9364Z" fill="#1E3D34"/>
      </g>
    </g>
  </g>
  <mask id="mask12_7616_11267" style="mask-type:luminance" maskUnits="userSpaceOnUse" x="83" y="9" width="9" height="7">
    <path d="M83.2031 9.70813H91.2675V15.6979H83.2031V9.70813Z" fill="white"/>
  </mask>
  <g mask="url(#mask12_7616_11267)">
    <mask id="mask13_7616_11267" style="mask-type:luminance" maskUnits="userSpaceOnUse" x="83" y="9" width="9" height="7">
      <path d="M88.4354 14.375C86.8813 15.4762 85.0153 15.8416 83.2682 15.5309C83.5447 13.7861 84.5032 12.1497 86.0573 11.0486C87.6174 9.94389 89.4774 9.58048 91.225 9.89162C90.9485 11.6375 89.9945 13.2688 88.4354 14.375Z" fill="white"/>
    </mask>
    <g mask="url(#mask13_7616_11267)">
      <mask id="mask14_7616_11267" style="mask-type:luminance" maskUnits="userSpaceOnUse" x="83" y="9" width="9" height="7">
        <path d="M88.4354 14.375C86.8813 15.4762 85.0153 15.8416 83.2682 15.5309C83.5447 13.7861 84.5032 12.1497 86.0573 11.0486C87.6174 9.94389 89.4774 9.58048 91.225 9.89162C90.9485 11.6375 89.9945 13.2688 88.4354 14.375Z" fill="white"/>
      </mask>
      <g mask="url(#mask14_7616_11267)">
        <path d="M83.2683 15.8416H91.2251V9.58057H83.2683V15.8416Z" fill="#1E3D34"/>
      </g>
    </g>
  </g>
  <mask id="mask15_7616_11267" style="mask-type:luminance" maskUnits="userSpaceOnUse" x="76" y="30" width="8" height="7">
    <path d="M76.5475 30.2264H83.9718V36.726H76.5475V30.2264Z" fill="white"/>
  </mask>
  <g mask="url(#mask15_7616_11267)">
    <mask id="mask16_7616_11267" style="mask-type:luminance" maskUnits="userSpaceOnUse" x="76" y="30" width="8" height="7">
      <path d="M81.6175 35.0271C80.18 36.2771 78.3599 36.8262 76.5908 36.6888C76.6918 34.9251 77.4819 33.2031 78.9194 31.9531C80.3605 30.6991 82.1771 30.1549 83.9461 30.2913C83.8451 32.0551 83.0591 33.7726 81.6175 35.0271Z" fill="white"/>
    </mask>
    <g mask="url(#mask16_7616_11267)">
      <mask id="mask17_7616_11267" style="mask-type:luminance" maskUnits="userSpaceOnUse" x="76" y="30" width="8" height="7">
        <path d="M81.6175 35.0271C80.18 36.2771 78.3599 36.8262 76.5908 36.6888C76.6918 34.9251 77.4819 33.2031 78.9194 31.9531C80.3605 30.6991 82.1771 30.1549 83.9461 30.2913C83.8451 32.0551 83.0591 33.7726 81.6175 35.0271Z" fill="white"/>
      </mask>
      <g mask="url(#mask17_7616_11267)">
        <path d="M76.5907 36.826H83.946V30.1547H76.5907V36.826Z" fill="#1E3D34"/>
      </g>
    </g>
  </g>
  <mask id="mask18_7616_11267" style="mask-type:luminance" maskUnits="userSpaceOnUse" x="63" y="32" width="9" height="8">
    <path d="M63.6187 32.9023H71.171V39.5293H63.6187V32.9023Z" fill="white"/>
  </mask>
  <g mask="url(#mask18_7616_11267)">
    <mask id="mask19_7616_11267" style="mask-type:luminance" maskUnits="userSpaceOnUse" x="63" y="33" width="9" height="7">
      <path d="M68.7485 37.7757C67.3114 39.0247 65.4909 39.5743 63.7218 39.4364C63.8233 37.6726 64.6143 35.9512 66.0504 34.7006C67.492 33.4466 69.308 32.9025 71.0771 33.0399C70.9761 34.8042 70.1901 36.5217 68.7485 37.7757Z" fill="white"/>
    </mask>
    <g mask="url(#mask19_7616_11267)">
      <mask id="mask20_7616_11267" style="mask-type:luminance" maskUnits="userSpaceOnUse" x="63" y="33" width="9" height="7">
        <path d="M68.7485 37.7757C67.3114 39.0247 65.4909 39.5743 63.7218 39.4364C63.8233 37.6726 64.6143 35.9512 66.0504 34.7006C67.492 33.4466 69.308 32.9025 71.0771 33.0399C70.9761 34.8042 70.1901 36.5217 68.7485 37.7757Z" fill="white"/>
      </mask>
      <g mask="url(#mask20_7616_11267)">
        <path d="M63.7219 39.574H71.0772V32.9022H63.7219V39.574Z" fill="#1E3D34"/>
      </g>
    </g>
  </g>
  <mask id="mask21_7616_11267" style="mask-type:luminance" maskUnits="userSpaceOnUse" x="60" y="20" width="5" height="10">
    <path d="M60.0343 20.2858H64.7705V29.7165H60.0343V20.2858Z" fill="white"/>
  </mask>
  <g mask="url(#mask21_7616_11267)">
    <mask id="mask22_7616_11267" style="mask-type:luminance" maskUnits="userSpaceOnUse" x="60" y="20" width="5" height="10">
      <path d="M64.3785 25.5768C63.8279 27.3953 62.5774 28.8226 61.0053 29.6425C60.1503 28.0938 59.9018 26.2165 60.4523 24.398C61.0053 22.573 62.2534 21.1522 63.8264 20.3328C64.6815 21.881 64.9315 23.7518 64.3785 25.5768Z" fill="white"/>
    </mask>
    <g mask="url(#mask22_7616_11267)">
      <mask id="mask23_7616_11267" style="mask-type:luminance" maskUnits="userSpaceOnUse" x="60" y="20" width="5" height="10">
        <path d="M64.3785 25.5768C63.8279 27.3953 62.5774 28.8226 61.0053 29.6425C60.1503 28.0938 59.9018 26.2165 60.4523 24.398C61.0053 22.573 62.2534 21.1522 63.8264 20.3328C64.6815 21.881 64.9315 23.7518 64.3785 25.5768Z" fill="white"/>
      </mask>
      <g mask="url(#mask23_7616_11267)">
        <path d="M59.9014 29.6425H64.9311V20.3328H59.9014V29.6425Z" fill="#1E3D34"/>
      </g>
    </g>
  </g>
  <mask id="mask24_7616_11267" style="mask-type:luminance" maskUnits="userSpaceOnUse" x="62" y="7" width="7" height="9">
    <path d="M62.7229 7.66882H68.7391V15.6977H62.7229V7.66882Z" fill="white"/>
  </mask>
  <g mask="url(#mask24_7616_11267)">
    <mask id="mask25_7616_11267" style="mask-type:luminance" maskUnits="userSpaceOnUse" x="62" y="7" width="7" height="9">
      <path d="M67.3743 12.8635C66.2672 14.4102 64.6236 15.3635 62.8711 15.6378C62.5601 13.8979 62.9286 12.0411 64.0361 10.4943C65.1472 8.94163 66.7867 7.99378 68.5393 7.71948C68.8513 9.45936 68.4868 11.3108 67.3743 12.8635Z" fill="white"/>
    </mask>
    <g mask="url(#mask25_7616_11267)">
      <mask id="mask26_7616_11267" style="mask-type:luminance" maskUnits="userSpaceOnUse" x="62" y="7" width="7" height="9">
        <path d="M67.3743 12.8635C66.2672 14.4102 64.6236 15.3635 62.8711 15.6378C62.5601 13.8979 62.9286 12.0411 64.0361 10.4943C65.1472 8.94163 66.7867 7.99378 68.5393 7.71948C68.8513 9.45936 68.4868 11.3108 67.3743 12.8635Z" fill="white"/>
      </mask>
      <g mask="url(#mask26_7616_11267)">
        <path d="M62.5602 15.6377H68.8514V7.71936H62.5602V15.6377Z" fill="#1E3D34"/>
      </g>
    </g>
  </g>
  <mask id="mask27_7616_11267" style="mask-type:luminance" maskUnits="userSpaceOnUse" x="84" y="37" width="11" height="5">
    <path d="M84.7388 37.7455H94.0832V41.8236H84.7388V37.7455Z" fill="white"/>
  </mask>
  <g mask="url(#mask27_7616_11267)">
    <mask id="mask28_7616_11267" style="mask-type:luminance" maskUnits="userSpaceOnUse" x="84" y="37" width="10" height="5">
      <path d="M89.1962 37.8726C87.3926 38.0304 85.8181 38.911 84.749 40.2073C86.0281 41.2981 87.7331 41.892 89.5367 41.7342C91.3478 41.5758 92.9159 40.6952 93.9849 39.3994C92.7049 38.3087 91.0063 37.7148 89.1962 37.8726Z" fill="white"/>
    </mask>
    <g mask="url(#mask28_7616_11267)">
      <mask id="mask29_7616_11267" style="mask-type:luminance" maskUnits="userSpaceOnUse" x="84" y="37" width="10" height="5">
        <path d="M89.1962 37.8726C87.3926 38.0304 85.8181 38.911 84.749 40.2073C86.0281 41.2981 87.7331 41.892 89.5367 41.7342C91.3478 41.5758 92.9159 40.6952 93.9849 39.3994C92.7049 38.3087 91.0063 37.7148 89.1962 37.8726Z" fill="white"/>
      </mask>
      <g mask="url(#mask29_7616_11267)">
        <path d="M84.749 41.8916H93.9849V37.7144H84.749V41.8916Z" fill="#1E3D34"/>
      </g>
    </g>
  </g>
  <mask id="mask30_7616_11267" style="mask-type:luminance" maskUnits="userSpaceOnUse" x="88" y="30" width="10" height="5">
    <path d="M88.1957 30.6088H97.5401V34.6869H88.1957V30.6088Z" fill="white"/>
  </mask>
  <g mask="url(#mask30_7616_11267)">
    <mask id="mask31_7616_11267" style="mask-type:luminance" maskUnits="userSpaceOnUse" x="88" y="30" width="10" height="5">
      <path d="M92.6622 30.6989C90.8576 30.8567 89.283 31.7373 88.214 33.0337C89.494 34.1244 91.1981 34.7183 93.0027 34.5605C94.8128 34.4022 96.3808 33.5215 97.4499 32.2257C96.1708 31.1345 94.4722 30.5406 92.6622 30.6989Z" fill="white"/>
    </mask>
    <g mask="url(#mask31_7616_11267)">
      <mask id="mask32_7616_11267" style="mask-type:luminance" maskUnits="userSpaceOnUse" x="88" y="30" width="10" height="5">
        <path d="M92.6622 30.6989C90.8576 30.8567 89.283 31.7373 88.214 33.0337C89.494 34.1244 91.1981 34.7183 93.0027 34.5605C94.8128 34.4022 96.3808 33.5215 97.4499 32.2257C96.1708 31.1345 94.4722 30.5406 92.6622 30.6989Z" fill="white"/>
      </mask>
      <g mask="url(#mask32_7616_11267)">
        <path d="M88.2142 34.7185H97.4501V30.5408H88.2142V34.7185Z" fill="#1E3D34"/>
      </g>
    </g>
  </g>
  <mask id="mask33_7616_11267" style="mask-type:luminance" maskUnits="userSpaceOnUse" x="95" y="27" width="9" height="5">
    <path d="M95.748 27.2954H103.556V31.1187H95.748V27.2954Z" fill="white"/>
  </mask>
  <g mask="url(#mask33_7616_11267)">
    <mask id="mask34_7616_11267" style="mask-type:luminance" maskUnits="userSpaceOnUse" x="95" y="27" width="9" height="5">
      <path d="M100.186 27.6133C98.6988 27.115 97.1422 27.2703 95.8417 27.9294C96.4777 29.2367 97.6232 30.297 99.1108 30.7954C100.602 31.2952 102.153 31.1383 103.454 30.4792C102.818 29.1705 101.677 28.1131 100.186 27.6133Z" fill="white"/>
    </mask>
    <g mask="url(#mask34_7616_11267)">
      <mask id="mask35_7616_11267" style="mask-type:luminance" maskUnits="userSpaceOnUse" x="95" y="27" width="9" height="5">
        <path d="M100.186 27.6133C98.6987 27.115 97.1421 27.2703 95.8416 27.9294C96.4776 29.2367 97.6231 30.297 99.1107 30.7954C100.602 31.2952 102.153 31.1383 103.454 30.4792C102.818 29.1705 101.677 28.1131 100.186 27.6133Z" fill="white"/>
      </mask>
      <g mask="url(#mask35_7616_11267)">
        <path d="M95.8414 31.2956H103.454V27.1154H95.8414V31.2956Z" fill="url(#paint1_linear_7616_11267)"/>
      </g>
    </g>
  </g>
  <mask id="mask36_7616_11267" style="mask-type:luminance" maskUnits="userSpaceOnUse" x="95" y="19" width="7" height="6">
    <path d="M95.3636 19.2666H101.508V24.6192H95.3636V19.2666Z" fill="white"/>
  </mask>
  <g mask="url(#mask36_7616_11267)">
    <mask id="mask37_7616_11267" style="mask-type:luminance" maskUnits="userSpaceOnUse" x="95" y="19" width="7" height="6">
      <path d="M97.3299 20.6526C96.1484 21.6801 95.4969 23.0944 95.4124 24.5451C96.8664 24.6595 98.3645 24.2095 99.547 23.1825C100.733 22.1525 101.38 20.7407 101.465 19.2906C100.009 19.1756 98.5165 19.6231 97.3299 20.6526Z" fill="white"/>
    </mask>
    <g mask="url(#mask37_7616_11267)">
      <mask id="mask38_7616_11267" style="mask-type:luminance" maskUnits="userSpaceOnUse" x="95" y="19" width="7" height="6">
        <path d="M97.3299 20.6526C96.1484 21.6801 95.4969 23.0944 95.4124 24.5451C96.8664 24.6595 98.3645 24.2095 99.547 23.1825C100.733 22.1525 101.38 20.7407 101.465 19.2906C100.009 19.1756 98.5165 19.6231 97.3299 20.6526Z" fill="white"/>
      </mask>
      <g mask="url(#mask38_7616_11267)">
        <path d="M95.4122 24.6595H101.464V19.1755H95.4122V24.6595Z" fill="#1E3D34"/>
      </g>
    </g>
  </g>
  <mask id="mask39_7616_11267" style="mask-type:luminance" maskUnits="userSpaceOnUse" x="76" y="21" width="6" height="8">
    <path d="M76.9309 21.9424H81.6671V28.0596H76.9309V21.9424Z" fill="white"/>
  </mask>
  <g mask="url(#mask39_7616_11267)">
    <mask id="mask40_7616_11267" style="mask-type:luminance" maskUnits="userSpaceOnUse" x="76" y="22" width="6" height="6">
      <path d="M78.0143 24.045C77.1352 25.2034 76.8122 26.6157 77.0122 27.9524C78.3588 27.7801 79.6348 27.0872 80.5159 25.9287C81.3989 24.7663 81.7189 23.358 81.5194 22.0223C80.1723 22.1931 78.8988 22.8826 78.0143 24.045Z" fill="white"/>
    </mask>
    <g mask="url(#mask40_7616_11267)">
      <mask id="mask41_7616_11267" style="mask-type:luminance" maskUnits="userSpaceOnUse" x="76" y="22" width="6" height="6">
        <path d="M78.0143 24.045C77.1352 25.2034 76.8122 26.6157 77.0122 27.9524C78.3588 27.7801 79.6348 27.0872 80.5159 25.9287C81.3989 24.7663 81.7189 23.358 81.5194 22.0223C80.1723 22.1931 78.8988 22.8826 78.0143 24.045Z" fill="white"/>
      </mask>
      <g mask="url(#mask41_7616_11267)">
        <path d="M76.8119 27.9522H81.7186V22.0222H76.8119V27.9522Z" fill="#1E3D34"/>
      </g>
    </g>
  </g>
  <mask id="mask42_7616_11267" style="mask-type:luminance" maskUnits="userSpaceOnUse" x="57" y="9" width="5" height="8">
    <path d="M57.9863 9.32544H61.3145V16.8445H57.9863V9.32544Z" fill="white"/>
  </mask>
  <g mask="url(#mask42_7616_11267)">
    <mask id="mask43_7616_11267" style="mask-type:luminance" maskUnits="userSpaceOnUse" x="58" y="9" width="4" height="8">
      <path d="M58.0942 13.0359C58.0137 14.4861 58.5372 15.8371 59.4522 16.8353C60.4738 15.9442 61.1448 14.6598 61.2253 13.2081C61.3073 11.7525 60.7823 10.4069 59.8672 9.41028C58.8467 10.2999 58.1762 11.5793 58.0942 13.0359Z" fill="white"/>
    </mask>
    <g mask="url(#mask43_7616_11267)">
      <mask id="mask44_7616_11267" style="mask-type:luminance" maskUnits="userSpaceOnUse" x="58" y="9" width="4" height="8">
        <path d="M58.0942 13.0359C58.0137 14.4861 58.5372 15.8371 59.4522 16.8353C60.4738 15.9442 61.1448 14.6598 61.2253 13.2081C61.3073 11.7525 60.7823 10.4069 59.8672 9.41028C58.8467 10.2999 58.1762 11.5793 58.0942 13.0359Z" fill="white"/>
      </mask>
      <g mask="url(#mask44_7616_11267)">
        <path d="M58.0143 16.8354H61.3079V9.4104H58.0143V16.8354Z" fill="#1E3D34"/>
      </g>
    </g>
  </g>
  <mask id="mask45_7616_11267" style="mask-type:luminance" maskUnits="userSpaceOnUse" x="73" y="14" width="5" height="9">
    <path d="M73.7308 14.5511H77.059V22.0702H73.7308V14.5511Z" fill="white"/>
  </mask>
  <g mask="url(#mask45_7616_11267)">
    <mask id="mask46_7616_11267" style="mask-type:luminance" maskUnits="userSpaceOnUse" x="73" y="14" width="4" height="9">
      <path d="M73.8013 18.1346C73.6143 19.5757 74.0393 20.9612 74.8788 22.0225C75.9619 21.2081 76.7249 19.9745 76.9119 18.5348C77.0984 17.0881 76.6749 15.7077 75.8339 14.6478C74.7508 15.4608 73.9883 16.6894 73.8013 18.1346Z" fill="white"/>
    </mask>
    <g mask="url(#mask46_7616_11267)">
      <mask id="mask47_7616_11267" style="mask-type:luminance" maskUnits="userSpaceOnUse" x="73" y="14" width="4" height="9">
        <path d="M73.8013 18.1346C73.6143 19.5757 74.0393 20.9612 74.8788 22.0225C75.9619 21.2081 76.7249 19.9745 76.9119 18.5348C77.0984 17.0881 76.6749 15.7077 75.8339 14.6478C74.7508 15.4608 73.9883 16.6894 73.8013 18.1346Z" fill="white"/>
      </mask>
      <g mask="url(#mask47_7616_11267)">
        <path d="M73.6147 22.0225H77.0989V14.6478H73.6147V22.0225Z" fill="#1E3D34"/>
      </g>
    </g>
  </g>
  <mask id="mask48_7616_11267" style="mask-type:luminance" maskUnits="userSpaceOnUse" x="69" y="10" width="4" height="9">
    <path d="M69.123 10.9827H72.5792V18.3743H69.123V10.9827Z" fill="white"/>
  </mask>
  <g mask="url(#mask48_7616_11267)">
    <mask id="mask49_7616_11267" style="mask-type:luminance" maskUnits="userSpaceOnUse" x="69" y="11" width="4" height="8">
      <path d="M69.2741 14.9765C69.5826 16.3972 70.4466 17.5611 71.5961 18.281C72.3422 17.1534 72.6472 15.7371 72.3387 14.3178C72.0302 12.8926 71.1661 11.7332 70.0166 11.0128C69.2701 12.1409 68.9645 13.5517 69.2741 14.9765Z" fill="white"/>
    </mask>
    <g mask="url(#mask49_7616_11267)">
      <mask id="mask50_7616_11267" style="mask-type:luminance" maskUnits="userSpaceOnUse" x="69" y="11" width="4" height="8">
        <path d="M69.2741 14.9765C69.5826 16.3972 70.4466 17.5611 71.5961 18.281C72.3422 17.1534 72.6472 15.7371 72.3387 14.3178C72.0302 12.8926 71.1661 11.7332 70.0166 11.0128C69.2701 12.1409 68.9645 13.5517 69.2741 14.9765Z" fill="white"/>
      </mask>
      <g mask="url(#mask50_7616_11267)">
        <path d="M68.9647 18.2811H72.6474V11.0129H68.9647V18.2811Z" fill="#1E3D34"/>
      </g>
    </g>
  </g>
  <mask id="mask51_7616_11267" style="mask-type:luminance" maskUnits="userSpaceOnUse" x="64" y="19" width="7" height="6">
    <path d="M64.8984 19.5209H70.9147V24.3637H64.8984V19.5209Z" fill="white"/>
  </mask>
  <g mask="url(#mask51_7616_11267)">
    <mask id="mask52_7616_11267" style="mask-type:luminance" maskUnits="userSpaceOnUse" x="64" y="19" width="7" height="6">
      <path d="M66.8942 23.1503C68.0463 24.0409 69.4608 24.3799 70.8059 24.1977C70.6499 22.8546 69.9703 21.5752 68.8168 20.6841C67.6607 19.791 66.2502 19.4545 64.9061 19.6367C65.0611 20.9798 65.7372 22.2567 66.8942 23.1503Z" fill="white"/>
    </mask>
    <g mask="url(#mask52_7616_11267)">
      <mask id="mask53_7616_11267" style="mask-type:luminance" maskUnits="userSpaceOnUse" x="64" y="19" width="7" height="6">
        <path d="M66.8942 23.1503C68.0463 24.0409 69.4608 24.3799 70.8059 24.1977C70.6499 22.8546 69.9703 21.5752 68.8168 20.6841C67.6607 19.791 66.2502 19.4545 64.9061 19.6367C65.0611 20.9798 65.7372 22.2567 66.8942 23.1503Z" fill="white"/>
      </mask>
      <g mask="url(#mask53_7616_11267)">
        <path d="M64.906 24.3798H70.8057V19.4543H64.906V24.3798Z" fill="#1E3D34"/>
      </g>
    </g>
  </g>
  <mask id="mask54_7616_11267" style="mask-type:luminance" maskUnits="userSpaceOnUse" x="77" y="9" width="6" height="9">
    <path d="M77.9551 9.70813H82.5633V17.6095H77.9551V9.70813Z" fill="white"/>
  </mask>
  <g mask="url(#mask54_7616_11267)">
    <mask id="mask55_7616_11267" style="mask-type:luminance" maskUnits="userSpaceOnUse" x="78" y="9" width="5" height="9">
      <path d="M78.6444 12.8403C77.9009 14.3457 77.8459 16.0149 78.3669 17.4859C79.8539 16.9991 81.1495 15.9347 81.892 14.4308C82.638 12.9209 82.6906 11.2552 82.17 9.78467C80.6825 10.2725 79.3894 11.3304 78.6444 12.8403Z" fill="white"/>
    </mask>
    <g mask="url(#mask55_7616_11267)">
      <mask id="mask56_7616_11267" style="mask-type:luminance" maskUnits="userSpaceOnUse" x="78" y="9" width="5" height="9">
        <path d="M78.6444 12.8403C77.9009 14.3457 77.8459 16.0149 78.3669 17.4859C79.8539 16.9991 81.1495 15.9347 81.892 14.4308C82.638 12.9209 82.6906 11.2552 82.17 9.78467C80.6825 10.2725 79.3894 11.3304 78.6444 12.8403Z" fill="white"/>
      </mask>
      <g mask="url(#mask56_7616_11267)">
        <path d="M77.8453 17.4861H82.69V9.78479H77.8453V17.4861Z" fill="#1E3D34"/>
      </g>
    </g>
  </g>
  <mask id="mask57_7616_11267" style="mask-type:luminance" maskUnits="userSpaceOnUse" x="90" y="19" width="5" height="8">
    <path d="M90.6276 19.2666H94.9797V26.5308H90.6276V19.2666Z" fill="white"/>
  </mask>
  <g mask="url(#mask57_7616_11267)">
    <mask id="mask58_7616_11267" style="mask-type:luminance" maskUnits="userSpaceOnUse" x="90" y="19" width="5" height="8">
      <path d="M91.3176 22.1297C90.6291 23.534 90.5826 25.0902 91.0716 26.4592C92.4567 26.0002 93.6602 25.0051 94.3473 23.6017C95.0388 22.1924 95.0823 20.6412 94.5933 19.2727C93.2082 19.7312 92.0077 20.7219 91.3176 22.1297Z" fill="white"/>
    </mask>
    <g mask="url(#mask58_7616_11267)">
      <mask id="mask59_7616_11267" style="mask-type:luminance" maskUnits="userSpaceOnUse" x="90" y="19" width="5" height="8">
        <path d="M91.3176 22.1297C90.6291 23.534 90.5826 25.0902 91.0716 26.4592C92.4567 26.0002 93.6602 25.0051 94.3473 23.6017C95.0388 22.1924 95.0823 20.6412 94.5933 19.2727C93.2082 19.7312 92.0077 20.7219 91.3176 22.1297Z" fill="white"/>
      </mask>
      <g mask="url(#mask59_7616_11267)">
        <path d="M90.5831 26.4592H95.0828V19.2727H90.5831V26.4592Z" fill="#1E3D34"/>
      </g>
    </g>
  </g>
  <mask id="mask60_7616_11267" style="mask-type:luminance" maskUnits="userSpaceOnUse" x="89" y="12" width="5" height="9">
    <path d="M89.6033 12.2571H93.4434V20.1585H89.6033V12.2571Z" fill="white"/>
  </mask>
  <g mask="url(#mask60_7616_11267)">
    <mask id="mask61_7616_11267" style="mask-type:luminance" maskUnits="userSpaceOnUse" x="89" y="12" width="5" height="9">
      <path d="M89.8976 15.7881C89.517 17.3034 89.7965 18.8352 90.5591 20.0738C91.8186 19.3385 92.7892 18.1174 93.1692 16.6025C93.5507 15.0822 93.2702 13.5539 92.5077 12.3163C91.2481 13.0506 90.2791 14.2677 89.8976 15.7881Z" fill="white"/>
    </mask>
    <g mask="url(#mask61_7616_11267)">
      <mask id="mask62_7616_11267" style="mask-type:luminance" maskUnits="userSpaceOnUse" x="89" y="12" width="5" height="9">
        <path d="M89.8977 15.7881C89.5172 17.3034 89.7967 18.8352 90.5592 20.0738C91.8188 19.3385 92.7893 18.1174 93.1693 16.6025C93.5508 15.0822 93.2703 13.5539 92.5078 12.3163C91.2482 13.0506 90.2792 14.2677 89.8977 15.7881Z" fill="white"/>
      </mask>
      <g mask="url(#mask62_7616_11267)">
        <path d="M89.517 20.0738H93.5506V12.3163H89.517V20.0738Z" fill="#1E3D34"/>
      </g>
    </g>
  </g>
  <mask id="mask63_7616_11267" style="mask-type:luminance" maskUnits="userSpaceOnUse" x="82" y="19" width="5" height="8">
    <path d="M82.5634 19.2666H86.9155V26.5308H82.5634V19.2666Z" fill="white"/>
  </mask>
  <g mask="url(#mask63_7616_11267)">
    <mask id="mask64_7616_11267" style="mask-type:luminance" maskUnits="userSpaceOnUse" x="82" y="19" width="5" height="8">
      <path d="M86.2649 22.1297C86.9519 23.534 86.9979 25.0902 86.5089 26.4592C85.1243 26.0002 83.9223 25.0051 83.2333 23.6017C82.5437 22.1924 82.4987 20.6412 82.9888 19.2727C84.3728 19.7312 85.5749 20.7219 86.2649 22.1297Z" fill="white"/>
    </mask>
    <g mask="url(#mask64_7616_11267)">
      <mask id="mask65_7616_11267" style="mask-type:luminance" maskUnits="userSpaceOnUse" x="82" y="19" width="5" height="8">
        <path d="M86.2649 22.1297C86.9519 23.534 86.9979 25.0902 86.5089 26.4592C85.1243 26.0002 83.9223 25.0051 83.2333 23.6017C82.5437 22.1924 82.4987 20.6412 82.9888 19.2727C84.3728 19.7312 85.5749 20.7219 86.2649 22.1297Z" fill="white"/>
      </mask>
      <g mask="url(#mask65_7616_11267)">
        <path d="M82.4985 26.4592H86.9977V19.2727H82.4985V26.4592Z" fill="#1E3D34"/>
      </g>
    </g>
  </g>
  <mask id="mask66_7616_11267" style="mask-type:luminance" maskUnits="userSpaceOnUse" x="20" y="43" width="7" height="8">
    <path d="M20.2247 43.6074H26.881V50.2344H20.2247V43.6074Z" fill="white"/>
  </mask>
  <g mask="url(#mask66_7616_11267)">
    <mask id="mask67_7616_11267" style="mask-type:luminance" maskUnits="userSpaceOnUse" x="20" y="43" width="7" height="8">
      <path d="M24.9487 48.2566C26.2298 46.9822 26.8678 45.3 26.8508 43.6229C25.1662 43.606 23.4772 44.2407 22.1961 45.5166C20.9111 46.796 20.277 48.4731 20.2945 50.1503C21.9791 50.1667 23.6637 49.536 24.9487 48.2566Z" fill="white"/>
    </mask>
    <g mask="url(#mask67_7616_11267)">
      <mask id="mask68_7616_11267" style="mask-type:luminance" maskUnits="userSpaceOnUse" x="20" y="43" width="7" height="8">
        <path d="M24.9487 48.2566C26.2298 46.9822 26.8678 45.3 26.8508 43.6229C25.1662 43.606 23.4772 44.2407 22.1961 45.5166C20.9111 46.796 20.277 48.4731 20.2945 50.1503C21.9791 50.1667 23.6637 49.536 24.9487 48.2566Z" fill="white"/>
      </mask>
      <g mask="url(#mask68_7616_11267)">
        <path d="M20.2767 50.1662H26.8675V43.6055H20.2767V50.1662Z" fill="#1E3D34"/>
      </g>
    </g>
  </g>
  <mask id="mask69_7616_11267" style="mask-type:luminance" maskUnits="userSpaceOnUse" x="27" y="44" width="8" height="6">
    <path d="M27.0093 44.2446H34.5616V49.3423H27.0093V44.2446Z" fill="white"/>
  </mask>
  <g mask="url(#mask69_7616_11267)">
    <mask id="mask70_7616_11267" style="mask-type:luminance" maskUnits="userSpaceOnUse" x="27" y="44" width="8" height="6">
      <path d="M31.7709 48.3885C33.2155 47.4835 34.155 46.0702 34.491 44.5254C32.9464 44.1585 31.2609 44.3915 29.8163 45.2965C28.3668 46.2051 27.4317 47.6149 27.0957 49.1606C28.6403 49.5265 30.3208 49.297 31.7709 48.3885Z" fill="white"/>
    </mask>
    <g mask="url(#mask70_7616_11267)">
      <mask id="mask71_7616_11267" style="mask-type:luminance" maskUnits="userSpaceOnUse" x="27" y="44" width="8" height="6">
        <path d="M31.7709 48.3885C33.2155 47.4835 34.155 46.0702 34.491 44.5254C32.9464 44.1585 31.2609 44.3915 29.8163 45.2965C28.3668 46.2051 27.4317 47.6149 27.0957 49.1606C28.6403 49.5265 30.3208 49.297 31.7709 48.3885Z" fill="white"/>
      </mask>
      <g mask="url(#mask71_7616_11267)">
        <path d="M27.0957 49.526H34.491V44.158H27.0957V49.526Z" fill="#1E3D34"/>
      </g>
    </g>
  </g>
  <mask id="mask72_7616_11267" style="mask-type:luminance" maskUnits="userSpaceOnUse" x="33" y="46" width="8" height="4">
    <path d="M33.6658 46.1564H40.066V49.7247H33.6658V46.1564Z" fill="white"/>
  </mask>
  <g mask="url(#mask72_7616_11267)">
    <mask id="mask73_7616_11267" style="mask-type:luminance" maskUnits="userSpaceOnUse" x="33" y="46" width="7" height="4">
      <path d="M37.45 49.2177C38.6745 48.6721 39.5621 47.6759 39.9946 46.511C38.833 46.056 37.496 46.052 36.2714 46.5976C35.0429 47.1457 34.1593 48.1394 33.7263 49.3058C34.8879 49.7593 36.2209 49.7658 37.45 49.2177Z" fill="white"/>
    </mask>
    <g mask="url(#mask73_7616_11267)">
      <mask id="mask74_7616_11267" style="mask-type:luminance" maskUnits="userSpaceOnUse" x="33" y="46" width="7" height="4">
        <path d="M37.45 49.2177C38.6745 48.6721 39.5621 47.6759 39.9946 46.511C38.833 46.056 37.496 46.052 36.2714 46.5976C35.0429 47.1457 34.1593 48.1394 33.7263 49.3058C34.8879 49.7593 36.2209 49.7658 37.45 49.2177Z" fill="white"/>
      </mask>
      <g mask="url(#mask74_7616_11267)">
        <path d="M33.7263 49.7655H39.9946V46.0518H33.7263V49.7655Z" fill="#1E3D34"/>
      </g>
    </g>
  </g>
  <mask id="mask75_7616_11267" style="mask-type:luminance" maskUnits="userSpaceOnUse" x="10" y="43" width="11" height="5">
    <path d="M10.8804 43.098H20.3528V47.6859H10.8804V43.098Z" fill="white"/>
  </mask>
  <g mask="url(#mask75_7616_11267)">
    <mask id="mask76_7616_11267" style="mask-type:luminance" maskUnits="userSpaceOnUse" x="10" y="43" width="11" height="5">
      <path d="M16.1701 47.4078C18.0032 46.8826 19.4523 45.6555 20.2948 44.1008C18.7502 43.2301 16.8677 42.9588 15.0346 43.485C13.195 44.0127 11.7524 45.2373 10.9099 46.7935C12.4545 47.6637 14.3306 47.9365 16.1701 47.4078Z" fill="white"/>
    </mask>
    <g mask="url(#mask76_7616_11267)">
      <mask id="mask77_7616_11267" style="mask-type:luminance" maskUnits="userSpaceOnUse" x="10" y="43" width="11" height="5">
        <path d="M16.1701 47.4078C18.0032 46.8826 19.4523 45.6555 20.2948 44.1008C18.7502 43.2301 16.8677 42.9588 15.0346 43.485C13.195 44.0127 11.7524 45.2373 10.9099 46.7935C12.4545 47.6637 14.3306 47.9365 16.1701 47.4078Z" fill="white"/>
      </mask>
      <g mask="url(#mask77_7616_11267)">
        <path d="M10.9097 47.9364H20.2946V42.9587H10.9097V47.9364Z" fill="#1E3D34"/>
      </g>
    </g>
  </g>
  <mask id="mask78_7616_11267" style="mask-type:luminance" maskUnits="userSpaceOnUse" x="19" y="9" width="9" height="7">
    <path d="M19.4569 9.70813H27.6492V15.6979H19.4569V9.70813Z" fill="white"/>
  </mask>
  <g mask="url(#mask78_7616_11267)">
    <mask id="mask79_7616_11267" style="mask-type:luminance" maskUnits="userSpaceOnUse" x="19" y="9" width="9" height="7">
      <path d="M22.3602 14.375C23.9147 15.4762 25.7803 15.8416 27.5274 15.5309C27.2509 13.7861 26.2928 12.1497 24.7383 11.0486C23.1787 9.94389 21.3181 9.58048 19.571 9.89162C19.8476 11.6375 20.8006 13.2688 22.3602 14.375Z" fill="white"/>
    </mask>
    <g mask="url(#mask79_7616_11267)">
      <mask id="mask80_7616_11267" style="mask-type:luminance" maskUnits="userSpaceOnUse" x="19" y="9" width="9" height="7">
        <path d="M22.3602 14.375C23.9147 15.4762 25.7803 15.8416 27.5274 15.5309C27.2509 13.7861 26.2928 12.1497 24.7383 11.0486C23.1787 9.94389 21.3181 9.58048 19.571 9.89162C19.8476 11.6375 20.8006 13.2688 22.3602 14.375Z" fill="white"/>
      </mask>
      <g mask="url(#mask80_7616_11267)">
        <path d="M19.5709 15.8416H27.5273V9.58057H19.5709V15.8416Z" fill="#1E3D34"/>
      </g>
    </g>
  </g>
  <mask id="mask81_7616_11267" style="mask-type:luminance" maskUnits="userSpaceOnUse" x="26" y="30" width="9" height="7">
    <path d="M26.7528 30.2264H34.3051V36.726H26.7528V30.2264Z" fill="white"/>
  </mask>
  <g mask="url(#mask81_7616_11267)">
    <mask id="mask82_7616_11267" style="mask-type:luminance" maskUnits="userSpaceOnUse" x="26" y="30" width="9" height="7">
      <path d="M29.1793 35.0271C30.6164 36.2771 32.4364 36.8262 34.206 36.6888C34.1045 34.9251 33.3145 33.2031 31.8774 31.9531C30.4354 30.6991 28.6203 30.1549 26.8507 30.2913C26.9522 32.0551 27.7377 33.7726 29.1793 35.0271Z" fill="white"/>
    </mask>
    <g mask="url(#mask82_7616_11267)">
      <mask id="mask83_7616_11267" style="mask-type:luminance" maskUnits="userSpaceOnUse" x="26" y="30" width="9" height="7">
        <path d="M29.1793 35.0271C30.6164 36.2771 32.4364 36.8262 34.206 36.6888C34.1045 34.9251 33.3145 33.2031 31.8774 31.9531C30.4354 30.6991 28.6203 30.1549 26.8507 30.2913C26.9522 32.0551 27.7377 33.7726 29.1793 35.0271Z" fill="white"/>
      </mask>
      <g mask="url(#mask83_7616_11267)">
        <path d="M26.8505 36.826H34.2058V30.1547H26.8505V36.826Z" fill="#1E3D34"/>
      </g>
    </g>
  </g>
  <mask id="mask84_7616_11267" style="mask-type:luminance" maskUnits="userSpaceOnUse" x="39" y="32" width="9" height="8">
    <path d="M39.6816 32.9023H47.1059V39.5293H39.6816V32.9023Z" fill="white"/>
  </mask>
  <g mask="url(#mask84_7616_11267)">
    <mask id="mask85_7616_11267" style="mask-type:luminance" maskUnits="userSpaceOnUse" x="39" y="33" width="9" height="7">
      <path d="M42.0478 37.7757C43.4849 39.0247 45.3055 39.5743 47.0745 39.4364C46.9735 37.6726 46.183 35.9512 44.7459 34.7006C43.3044 33.4466 41.4888 32.9025 39.7197 33.0399C39.8207 34.8042 40.6063 36.5217 42.0478 37.7757Z" fill="white"/>
    </mask>
    <g mask="url(#mask85_7616_11267)">
      <mask id="mask86_7616_11267" style="mask-type:luminance" maskUnits="userSpaceOnUse" x="39" y="33" width="9" height="7">
        <path d="M42.0478 37.7757C43.4849 39.0247 45.3055 39.5743 47.0745 39.4364C46.9735 37.6726 46.183 35.9512 44.7459 34.7006C43.3044 33.4466 41.4888 32.9025 39.7197 33.0399C39.8207 34.8042 40.6063 36.5217 42.0478 37.7757Z" fill="white"/>
      </mask>
      <g mask="url(#mask86_7616_11267)">
        <path d="M39.7197 39.574H47.0745V32.9022H39.7197V39.574Z" fill="#1E3D34"/>
      </g>
    </g>
  </g>
  <mask id="mask87_7616_11267" style="mask-type:luminance" maskUnits="userSpaceOnUse" x="46" y="20" width="5" height="10">
    <path d="M46.0818 20.2858H50.69V29.7165H46.0818V20.2858Z" fill="white"/>
  </mask>
  <g mask="url(#mask87_7616_11267)">
    <mask id="mask88_7616_11267" style="mask-type:luminance" maskUnits="userSpaceOnUse" x="46" y="20" width="5" height="10">
      <path d="M46.4177 25.5768C46.9687 27.3953 48.2187 28.8226 49.7908 29.6425C50.6458 28.0938 50.8944 26.2165 50.3433 24.398C49.7903 22.573 48.5423 21.1522 46.9702 20.3328C46.1152 21.881 45.8646 23.7518 46.4177 25.5768Z" fill="white"/>
    </mask>
    <g mask="url(#mask88_7616_11267)">
      <mask id="mask89_7616_11267" style="mask-type:luminance" maskUnits="userSpaceOnUse" x="46" y="20" width="5" height="10">
        <path d="M46.4177 25.5768C46.9687 27.3953 48.2187 28.8226 49.7908 29.6425C50.6458 28.0938 50.8944 26.2165 50.3433 24.398C49.7903 22.573 48.5423 21.1522 46.9702 20.3328C46.1152 21.881 45.8646 23.7518 46.4177 25.5768Z" fill="white"/>
      </mask>
      <g mask="url(#mask89_7616_11267)">
        <path d="M45.8639 29.6425H50.8936V20.3328H45.8639V29.6425Z" fill="#1E3D34"/>
      </g>
    </g>
  </g>
  <mask id="mask90_7616_11267" style="mask-type:luminance" maskUnits="userSpaceOnUse" x="42" y="7" width="7" height="9">
    <path d="M42.1139 7.66882H48.1301V15.6977H42.1139V7.66882Z" fill="white"/>
  </mask>
  <g mask="url(#mask90_7616_11267)">
    <mask id="mask91_7616_11267" style="mask-type:luminance" maskUnits="userSpaceOnUse" x="42" y="7" width="7" height="9">
      <path d="M43.4217 12.8635C44.5292 14.4102 46.1728 15.3635 47.9259 15.6378C48.2374 13.8979 47.8684 12.0411 46.7608 10.4943C45.6498 8.94163 44.0102 7.99378 42.2571 7.71948C41.9456 9.45936 42.3106 11.3108 43.4217 12.8635Z" fill="white"/>
    </mask>
    <g mask="url(#mask91_7616_11267)">
      <mask id="mask92_7616_11267" style="mask-type:luminance" maskUnits="userSpaceOnUse" x="42" y="7" width="7" height="9">
        <path d="M43.4217 12.8635C44.5292 14.4102 46.1728 15.3635 47.9259 15.6378C48.2374 13.8979 47.8684 12.0411 46.7608 10.4943C45.6498 8.94163 44.0102 7.99378 42.2571 7.71948C41.9456 9.45936 42.3106 11.3108 43.4217 12.8635Z" fill="white"/>
      </mask>
      <g mask="url(#mask92_7616_11267)">
        <path d="M41.9453 15.6377H48.2371V7.71936H41.9453V15.6377Z" fill="#1E3D34"/>
      </g>
    </g>
  </g>
  <mask id="mask93_7616_11267" style="mask-type:luminance" maskUnits="userSpaceOnUse" x="16" y="37" width="11" height="5">
    <path d="M16.7692 37.7455H26.1135V41.8236H16.7692V37.7455Z" fill="white"/>
  </mask>
  <g mask="url(#mask93_7616_11267)">
    <mask id="mask94_7616_11267" style="mask-type:luminance" maskUnits="userSpaceOnUse" x="16" y="37" width="11" height="5">
      <path d="M21.6007 37.8726C23.4053 38.0304 24.9793 38.911 26.0484 40.2073C24.7683 41.2981 23.0643 41.892 21.2602 41.7342C19.4496 41.5758 17.8815 40.6952 16.8125 39.3994C18.0921 38.3087 19.7901 37.7148 21.6007 37.8726Z" fill="white"/>
    </mask>
    <g mask="url(#mask94_7616_11267)">
      <mask id="mask95_7616_11267" style="mask-type:luminance" maskUnits="userSpaceOnUse" x="16" y="37" width="11" height="5">
        <path d="M21.6007 37.8726C23.4053 38.0304 24.9793 38.911 26.0484 40.2073C24.7683 41.2981 23.0643 41.892 21.2602 41.7342C19.4496 41.5758 17.8815 40.6952 16.8125 39.3994C18.0921 38.3087 19.7901 37.7148 21.6007 37.8726Z" fill="white"/>
      </mask>
      <g mask="url(#mask95_7616_11267)">
        <path d="M16.8124 41.8916H26.0483V37.7144H16.8124V41.8916Z" fill="#1E3D34"/>
      </g>
    </g>
  </g>
  <mask id="mask96_7616_11267" style="mask-type:luminance" maskUnits="userSpaceOnUse" x="13" y="30" width="10" height="5">
    <path d="M13.3123 30.6088H22.6566V34.6869H13.3123V30.6088Z" fill="white"/>
  </mask>
  <g mask="url(#mask96_7616_11267)">
    <mask id="mask97_7616_11267" style="mask-type:luminance" maskUnits="userSpaceOnUse" x="13" y="30" width="10" height="5">
      <path d="M18.134 30.6989C19.9386 30.8567 21.5127 31.7373 22.5817 33.0337C21.3022 34.1244 19.5981 34.7183 17.7935 34.5605C15.9829 34.4022 14.4149 33.5215 13.3458 32.2257C14.6259 31.1345 16.3239 30.5406 18.134 30.6989Z" fill="white"/>
    </mask>
    <g mask="url(#mask97_7616_11267)">
      <mask id="mask98_7616_11267" style="mask-type:luminance" maskUnits="userSpaceOnUse" x="13" y="30" width="10" height="5">
        <path d="M18.134 30.6989C19.9386 30.8567 21.5127 31.7373 22.5817 33.0337C21.3022 34.1244 19.5981 34.7183 17.7935 34.5605C15.9829 34.4022 14.4149 33.5215 13.3458 32.2257C14.6259 31.1345 16.3239 30.5406 18.134 30.6989Z" fill="white"/>
      </mask>
      <g mask="url(#mask98_7616_11267)">
        <path d="M13.3457 34.7185H22.5816V30.5408H13.3457V34.7185Z" fill="#1E3D34"/>
      </g>
    </g>
  </g>
  <mask id="mask99_7616_11267" style="mask-type:luminance" maskUnits="userSpaceOnUse" x="7" y="27" width="8" height="5">
    <path d="M7.29688 27.2954H14.9772V31.1187H7.29688V27.2954Z" fill="white"/>
  </mask>
  <g mask="url(#mask99_7616_11267)">
    <mask id="mask100_7616_11267" style="mask-type:luminance" maskUnits="userSpaceOnUse" x="7" y="27" width="8" height="5">
      <path d="M10.612 27.6133C12.0991 27.115 13.6551 27.2703 14.9552 27.9294C14.3197 29.2367 13.1741 30.297 11.6871 30.7954C10.195 31.2952 8.64393 31.1383 7.34387 30.4792C7.9794 29.1705 9.11995 28.1131 10.612 27.6133Z" fill="white"/>
    </mask>
    <g mask="url(#mask100_7616_11267)">
      <mask id="mask101_7616_11267" style="mask-type:luminance" maskUnits="userSpaceOnUse" x="7" y="27" width="8" height="5">
        <path d="M10.612 27.6133C12.0991 27.115 13.6551 27.2703 14.9552 27.9294C14.3197 29.2367 13.1741 30.297 11.6871 30.7954C10.195 31.2952 8.64393 31.1383 7.34387 30.4792C7.9794 29.1705 9.11995 28.1131 10.612 27.6133Z" fill="white"/>
      </mask>
      <g mask="url(#mask101_7616_11267)">
        <path d="M7.34399 31.2956H14.9553V27.1154H7.34399V31.2956Z" fill="url(#paint2_linear_7616_11267)"/>
      </g>
    </g>
  </g>
  <mask id="mask102_7616_11267" style="mask-type:luminance" maskUnits="userSpaceOnUse" x="9" y="19" width="7" height="6">
    <path d="M9.2168 19.2666H15.4891V24.6192H9.2168V19.2666Z" fill="white"/>
  </mask>
  <g mask="url(#mask102_7616_11267)">
    <mask id="mask103_7616_11267" style="mask-type:luminance" maskUnits="userSpaceOnUse" x="9" y="19" width="7" height="6">
      <path d="M13.4674 20.6526C14.6495 21.6801 15.301 23.0944 15.3855 24.5451C13.9305 24.6595 12.4334 24.2095 11.2508 23.1825C10.0648 22.1525 9.41727 20.7407 9.33276 19.2906C10.7878 19.1756 12.2809 19.6231 13.4674 20.6526Z" fill="white"/>
    </mask>
    <g mask="url(#mask103_7616_11267)">
      <mask id="mask104_7616_11267" style="mask-type:luminance" maskUnits="userSpaceOnUse" x="9" y="19" width="7" height="6">
        <path d="M13.4674 20.6526C14.6495 21.6801 15.301 23.0944 15.3855 24.5451C13.9305 24.6595 12.4334 24.2095 11.2508 23.1825C10.0648 22.1525 9.41727 20.7407 9.33276 19.2906C10.7878 19.1756 12.2809 19.6231 13.4674 20.6526Z" fill="white"/>
      </mask>
      <g mask="url(#mask104_7616_11267)">
        <path d="M9.33252 24.6595H15.3853V19.1755H9.33252V24.6595Z" fill="#1E3D34"/>
      </g>
    </g>
  </g>
  <mask id="mask105_7616_11267" style="mask-type:luminance" maskUnits="userSpaceOnUse" x="29" y="21" width="5" height="8">
    <path d="M29.1847 21.9424H33.9209V28.0596H29.1847V21.9424Z" fill="white"/>
  </mask>
  <g mask="url(#mask105_7616_11267)">
    <mask id="mask106_7616_11267" style="mask-type:luminance" maskUnits="userSpaceOnUse" x="29" y="22" width="5" height="6">
      <path d="M32.7812 24.045C33.6618 25.2034 33.9843 26.6157 33.7843 27.9524C32.4382 27.7801 31.1607 27.0872 30.2806 25.9287C29.3971 24.7663 29.0771 23.358 29.2776 22.0223C30.6237 22.1931 31.8977 22.8826 32.7812 24.045Z" fill="white"/>
    </mask>
    <g mask="url(#mask106_7616_11267)">
      <mask id="mask107_7616_11267" style="mask-type:luminance" maskUnits="userSpaceOnUse" x="29" y="22" width="5" height="6">
        <path d="M32.7812 24.045C33.6618 25.2034 33.9843 26.6157 33.7843 27.9524C32.4382 27.7801 31.1607 27.0872 30.2806 25.9287C29.3971 24.7663 29.0771 23.358 29.2776 22.0223C30.6237 22.1931 31.8977 22.8826 32.7812 24.045Z" fill="white"/>
      </mask>
      <g mask="url(#mask107_7616_11267)">
        <path d="M29.0767 27.9522H33.9839V22.0222H29.0767V27.9522Z" fill="#1E3D34"/>
      </g>
    </g>
  </g>
  <mask id="mask108_7616_11267" style="mask-type:luminance" maskUnits="userSpaceOnUse" x="49" y="9" width="4" height="8">
    <path d="M49.5382 9.32544H52.7383V16.8445H49.5382V9.32544Z" fill="white"/>
  </mask>
  <g mask="url(#mask108_7616_11267)">
    <mask id="mask109_7616_11267" style="mask-type:luminance" maskUnits="userSpaceOnUse" x="49" y="9" width="4" height="8">
      <path d="M52.703 13.0359C52.784 14.4861 52.26 15.8371 51.3445 16.8353C50.3239 15.9442 49.6529 14.6598 49.5719 13.2081C49.4904 11.7525 50.0149 10.4069 50.9299 9.41028C51.951 10.2999 52.622 11.5793 52.703 13.0359Z" fill="white"/>
    </mask>
    <g mask="url(#mask109_7616_11267)">
      <mask id="mask110_7616_11267" style="mask-type:luminance" maskUnits="userSpaceOnUse" x="49" y="9" width="4" height="8">
        <path d="M52.703 13.0359C52.784 14.4861 52.26 15.8371 51.3445 16.8353C50.3239 15.9442 49.6529 14.6598 49.5719 13.2081C49.4904 11.7525 50.0149 10.4069 50.9299 9.41028C51.951 10.2999 52.622 11.5793 52.703 13.0359Z" fill="white"/>
      </mask>
      <g mask="url(#mask110_7616_11267)">
        <path d="M49.4908 16.8354H52.7845V9.4104H49.4908V16.8354Z" fill="#1E3D34"/>
      </g>
    </g>
  </g>
  <mask id="mask111_7616_11267" style="mask-type:luminance" maskUnits="userSpaceOnUse" x="33" y="14" width="5" height="9">
    <path d="M33.7937 14.5511H37.1218V22.0702H33.7937V14.5511Z" fill="white"/>
  </mask>
  <g mask="url(#mask111_7616_11267)">
    <mask id="mask112_7616_11267" style="mask-type:luminance" maskUnits="userSpaceOnUse" x="33" y="14" width="5" height="9">
      <path d="M36.9949 18.1346C37.1819 19.5757 36.7574 20.9612 35.9173 22.0225C34.8343 21.2081 34.0713 19.9745 33.8848 18.5348C33.6973 17.0881 34.1218 15.7077 34.9623 14.6478C36.0453 15.4608 36.8079 16.6894 36.9949 18.1346Z" fill="white"/>
    </mask>
    <g mask="url(#mask112_7616_11267)">
      <mask id="mask113_7616_11267" style="mask-type:luminance" maskUnits="userSpaceOnUse" x="33" y="14" width="5" height="9">
        <path d="M36.9949 18.1346C37.1819 19.5757 36.7574 20.9612 35.9173 22.0225C34.8343 21.2081 34.0713 19.9745 33.8848 18.5348C33.6973 17.0881 34.1218 15.7077 34.9623 14.6478C36.0453 15.4608 36.8079 16.6894 36.9949 18.1346Z" fill="white"/>
      </mask>
      <g mask="url(#mask113_7616_11267)">
        <path d="M33.6967 22.0225H37.1813V14.6478H33.6967V22.0225Z" fill="#1E3D34"/>
      </g>
    </g>
  </g>
  <mask id="mask114_7616_11267" style="mask-type:luminance" maskUnits="userSpaceOnUse" x="38" y="10" width="4" height="9">
    <path d="M38.2736 10.9827H41.7297V18.3743H38.2736V10.9827Z" fill="white"/>
  </mask>
  <g mask="url(#mask114_7616_11267)">
    <mask id="mask115_7616_11267" style="mask-type:luminance" maskUnits="userSpaceOnUse" x="38" y="11" width="4" height="8">
      <path d="M41.5235 14.9765C41.2155 16.3972 40.3499 17.5611 39.2019 18.281C38.4548 17.1534 38.1498 15.7371 38.4583 14.3178C38.7679 12.8926 39.6319 11.7332 40.7799 11.0128C41.527 12.1409 41.833 13.5517 41.5235 14.9765Z" fill="white"/>
    </mask>
    <g mask="url(#mask115_7616_11267)">
      <mask id="mask116_7616_11267" style="mask-type:luminance" maskUnits="userSpaceOnUse" x="38" y="11" width="4" height="8">
        <path d="M41.5235 14.9765C41.2155 16.3972 40.3499 17.5611 39.2019 18.281C38.4548 17.1534 38.1498 15.7371 38.4583 14.3178C38.7679 12.8926 39.6319 11.7332 40.7799 11.0128C41.527 12.1409 41.833 13.5517 41.5235 14.9765Z" fill="white"/>
      </mask>
      <g mask="url(#mask116_7616_11267)">
        <path d="M38.1505 18.2811H41.8337V11.0129H38.1505V18.2811Z" fill="#1E3D34"/>
      </g>
    </g>
  </g>
  <mask id="mask117_7616_11267" style="mask-type:luminance" maskUnits="userSpaceOnUse" x="39" y="19" width="7" height="6">
    <path d="M39.938 19.5209H45.9542V24.3637H39.938V19.5209Z" fill="white"/>
  </mask>
  <g mask="url(#mask117_7616_11267)">
    <mask id="mask118_7616_11267" style="mask-type:luminance" maskUnits="userSpaceOnUse" x="39" y="19" width="7" height="6">
      <path d="M43.9031 23.1503C42.7506 24.0409 41.3365 24.3799 39.9915 24.1977C40.1475 22.8546 40.8275 21.5752 41.98 20.6841C43.1366 19.791 44.5471 19.4545 45.8917 19.6367C45.7362 20.9798 45.0597 22.2567 43.9031 23.1503Z" fill="white"/>
    </mask>
    <g mask="url(#mask118_7616_11267)">
      <mask id="mask119_7616_11267" style="mask-type:luminance" maskUnits="userSpaceOnUse" x="39" y="19" width="7" height="6">
        <path d="M43.9031 23.1503C42.7506 24.0409 41.3365 24.3799 39.9915 24.1977C40.1475 22.8546 40.8275 21.5752 41.98 20.6841C43.1366 19.791 44.5471 19.4545 45.8917 19.6367C45.7362 20.9798 45.0597 22.2567 43.9031 23.1503Z" fill="white"/>
      </mask>
      <g mask="url(#mask119_7616_11267)">
        <path d="M39.9912 24.3798H45.8915V19.4543H39.9912V24.3798Z" fill="#1E3D34"/>
      </g>
    </g>
  </g>
  <mask id="mask120_7616_11267" style="mask-type:luminance" maskUnits="userSpaceOnUse" x="28" y="9" width="5" height="9">
    <path d="M28.1614 9.70813H32.8976V17.6095H28.1614V9.70813Z" fill="white"/>
  </mask>
  <g mask="url(#mask120_7616_11267)">
    <mask id="mask121_7616_11267" style="mask-type:luminance" maskUnits="userSpaceOnUse" x="28" y="9" width="5" height="9">
      <path d="M32.1543 12.8403C32.8973 14.3457 32.9523 16.0149 32.4318 17.4859C30.9442 16.9991 29.6492 15.9347 28.9061 14.4308C28.1606 12.9209 28.1081 11.2552 28.6281 9.78467C30.1162 10.2725 31.4082 11.3304 32.1543 12.8403Z" fill="white"/>
    </mask>
    <g mask="url(#mask121_7616_11267)">
      <mask id="mask122_7616_11267" style="mask-type:luminance" maskUnits="userSpaceOnUse" x="28" y="9" width="5" height="9">
        <path d="M32.1543 12.8403C32.8973 14.3457 32.9523 16.0149 32.4318 17.4859C30.9442 16.9991 29.6492 15.9347 28.9061 14.4308C28.1606 12.9209 28.1081 11.2552 28.6281 9.78467C30.1162 10.2725 31.4082 11.3304 32.1543 12.8403Z" fill="white"/>
      </mask>
      <g mask="url(#mask122_7616_11267)">
        <path d="M28.1073 17.4861H32.9515V9.78479H28.1073V17.4861Z" fill="#1E3D34"/>
      </g>
    </g>
  </g>
  <mask id="mask123_7616_11267" style="mask-type:luminance" maskUnits="userSpaceOnUse" x="15" y="19" width="6" height="8">
    <path d="M15.8724 19.2666H20.0966V26.5308H15.8724V19.2666Z" fill="white"/>
  </mask>
  <g mask="url(#mask123_7616_11267)">
    <mask id="mask124_7616_11267" style="mask-type:luminance" maskUnits="userSpaceOnUse" x="15" y="19" width="6" height="8">
      <path d="M19.4788 22.1295C20.1668 23.5338 20.2128 25.09 19.7238 26.459C18.3392 26 17.1362 25.0049 16.4481 23.6015C15.7581 22.1922 15.7141 20.641 16.2031 19.2725C17.5877 19.731 18.7887 20.7216 19.4788 22.1295Z" fill="white"/>
    </mask>
    <g mask="url(#mask124_7616_11267)">
      <mask id="mask125_7616_11267" style="mask-type:luminance" maskUnits="userSpaceOnUse" x="15" y="19" width="6" height="8">
        <path d="M19.4788 22.1295C20.1668 23.5338 20.2128 25.09 19.7238 26.459C18.3392 26 17.1362 25.0049 16.4481 23.6015C15.7581 22.1922 15.7141 20.641 16.2031 19.2725C17.5877 19.731 18.7887 20.7216 19.4788 22.1295Z" fill="white"/>
      </mask>
      <g mask="url(#mask125_7616_11267)">
        <path d="M15.714 26.4592H20.2127V19.2727H15.714V26.4592Z" fill="#1E3D34"/>
      </g>
    </g>
  </g>
  <mask id="mask126_7616_11267" style="mask-type:luminance" maskUnits="userSpaceOnUse" x="17" y="12" width="5" height="9">
    <path d="M17.4089 12.2571H21.1211V20.1585H17.4089V12.2571Z" fill="white"/>
  </mask>
  <g mask="url(#mask126_7616_11267)">
    <mask id="mask127_7616_11267" style="mask-type:luminance" maskUnits="userSpaceOnUse" x="17" y="12" width="5" height="9">
      <path d="M20.8989 15.7881C21.2794 17.3034 21.0004 18.8352 20.2369 20.0738C18.9778 19.3385 18.0083 18.1174 17.6278 16.6025C17.2457 15.0822 17.5258 13.5539 18.2898 12.3163C19.5483 13.0506 20.5174 14.2677 20.8989 15.7881Z" fill="white"/>
    </mask>
    <g mask="url(#mask127_7616_11267)">
      <mask id="mask128_7616_11267" style="mask-type:luminance" maskUnits="userSpaceOnUse" x="17" y="12" width="5" height="9">
        <path d="M20.8989 15.7881C21.2794 17.3034 21.0004 18.8352 20.2369 20.0738C18.9778 19.3385 18.0083 18.1174 17.6278 16.6025C17.2457 15.0822 17.5258 13.5539 18.2898 12.3163C19.5483 13.0506 20.5174 14.2677 20.8989 15.7881Z" fill="white"/>
      </mask>
      <g mask="url(#mask128_7616_11267)">
        <path d="M17.2454 20.0738H21.279V12.3163H17.2454V20.0738Z" fill="#1E3D34"/>
      </g>
    </g>
  </g>
  <mask id="mask129_7616_11267" style="mask-type:luminance" maskUnits="userSpaceOnUse" x="23" y="19" width="6" height="8">
    <path d="M23.9371 19.2666H28.1613V26.5308H23.9371V19.2666Z" fill="white"/>
  </mask>
  <g mask="url(#mask129_7616_11267)">
    <mask id="mask130_7616_11267" style="mask-type:luminance" maskUnits="userSpaceOnUse" x="23" y="19" width="6" height="8">
      <path d="M24.5323 22.1297C23.8443 23.534 23.7978 25.0902 24.2873 26.4592C25.6718 26.0002 26.8749 25.0051 27.5629 23.6017C28.253 22.1924 28.297 20.6412 27.8079 19.2727C26.4234 19.7312 25.2223 20.7219 24.5323 22.1297Z" fill="white"/>
    </mask>
    <g mask="url(#mask130_7616_11267)">
      <mask id="mask131_7616_11267" style="mask-type:luminance" maskUnits="userSpaceOnUse" x="23" y="19" width="6" height="8">
        <path d="M24.5323 22.1297C23.8443 23.534 23.7978 25.0902 24.2873 26.4592C25.6718 26.0002 26.8749 25.0051 27.5629 23.6017C28.253 22.1924 28.297 20.6412 27.8079 19.2727C26.4234 19.7312 25.2223 20.7219 24.5323 22.1297Z" fill="white"/>
      </mask>
      <g mask="url(#mask131_7616_11267)">
        <path d="M23.798 26.4592H28.2972V19.2727H23.798V26.4592Z" fill="#1E3D34"/>
      </g>
    </g>
  </g>
  <mask id="mask132_7616_11267" style="mask-type:luminance" maskUnits="userSpaceOnUse" x="53" y="31" width="5" height="10">
    <path d="M53.3782 31.5006H57.4743V40.9313H53.3782V31.5006Z" fill="white"/>
  </mask>
  <g mask="url(#mask132_7616_11267)">
    <mask id="mask133_7616_11267" style="mask-type:luminance" maskUnits="userSpaceOnUse" x="53" y="31" width="5" height="10">
      <path d="M53.5012 36.2386C53.5012 34.434 54.2438 32.7967 55.4473 31.6228C56.6513 32.7967 57.3939 34.434 57.3939 36.2386C57.3939 38.0472 56.6513 39.6795 55.4473 40.8534C54.2438 39.6795 53.5012 38.0472 53.5012 36.2386Z" fill="white"/>
    </mask>
    <g mask="url(#mask133_7616_11267)">
      <mask id="mask134_7616_11267" style="mask-type:luminance" maskUnits="userSpaceOnUse" x="53" y="31" width="5" height="10">
        <path d="M53.5012 36.2386C53.5012 34.434 54.2438 32.7967 55.4473 31.6228C56.6513 32.7967 57.3939 34.434 57.3939 36.2386C57.3939 38.0472 56.6513 39.6795 55.4473 40.8534C54.2438 39.6795 53.5012 38.0472 53.5012 36.2386Z" fill="white"/>
      </mask>
      <g mask="url(#mask134_7616_11267)">
        <path d="M53.5012 40.8534H57.3939V31.6228H53.5012V40.8534Z" fill="#1E3D34"/>
      </g>
    </g>
  </g>
  <mask id="mask135_7616_11267" style="mask-type:luminance" maskUnits="userSpaceOnUse" x="52" y="0" width="6" height="13">
    <path d="M52.9939 0.532104H57.9861V12.2568H52.9939V0.532104Z" fill="white"/>
  </mask>
  <g mask="url(#mask135_7616_11267)">
    <mask id="mask136_7616_11267" style="mask-type:luminance" maskUnits="userSpaceOnUse" x="53" y="0" width="5" height="13">
      <path d="M53.0129 6.39675C53.0129 4.14113 53.942 2.09161 55.4475 0.623535C56.9536 2.09161 57.8831 4.14113 57.8831 6.39675C57.8831 8.66034 56.9536 10.7029 55.4475 12.171C53.942 10.7029 53.0129 8.66034 53.0129 6.39675Z" fill="white"/>
    </mask>
    <g mask="url(#mask136_7616_11267)">
      <mask id="mask137_7616_11267" style="mask-type:luminance" maskUnits="userSpaceOnUse" x="53" y="0" width="5" height="13">
        <path d="M53.0129 6.39675C53.0129 4.14113 53.942 2.09161 55.4475 0.623535C56.9536 2.09161 57.8831 4.14113 57.8831 6.39675C57.8831 8.66034 56.9536 10.7029 55.4475 12.171C53.942 10.7029 53.0129 8.66034 53.0129 6.39675Z" fill="white"/>
      </mask>
      <g mask="url(#mask137_7616_11267)">
        <path d="M53.0129 12.171H57.8831V0.623535H53.0129V12.171Z" fill="#1E3D34"/>
      </g>
    </g>
  </g>
  <mask id="mask138_7616_11267" style="mask-type:luminance" maskUnits="userSpaceOnUse" x="53" y="13" width="5" height="10">
    <path d="M53.5061 13.2767H57.3463V22.0702H53.5061V13.2767Z" fill="white"/>
  </mask>
  <g mask="url(#mask138_7616_11267)">
    <mask id="mask139_7616_11267" style="mask-type:luminance" maskUnits="userSpaceOnUse" x="53" y="13" width="5" height="10">
      <path d="M53.6141 17.6759C53.6141 15.9774 54.3137 14.4336 55.4472 13.329C56.5808 14.4336 57.2808 15.9774 57.2808 17.6759C57.2808 19.38 56.5808 20.9168 55.4472 22.0229C54.3137 20.9168 53.6141 19.38 53.6141 17.6759Z" fill="white"/>
    </mask>
    <g mask="url(#mask139_7616_11267)">
      <mask id="mask140_7616_11267" style="mask-type:luminance" maskUnits="userSpaceOnUse" x="53" y="13" width="5" height="10">
        <path d="M53.6141 17.6759C53.6141 15.9774 54.3137 14.4336 55.4472 13.329C56.5808 14.4336 57.2808 15.9774 57.2808 17.6759C57.2808 19.38 56.5808 20.9168 55.4472 22.0229C54.3137 20.9168 53.6141 19.38 53.6141 17.6759Z" fill="white"/>
      </mask>
      <g mask="url(#mask140_7616_11267)">
        <path d="M53.6141 22.0229H57.2808V13.329H53.6141V22.0229Z" fill="#1E3D34"/>
      </g>
    </g>
  </g>
  <mask id="mask141_7616_11267" style="mask-type:luminance" maskUnits="userSpaceOnUse" x="54" y="23" width="3" height="8">
    <path d="M54.0184 23.8541H56.8345V30.0988H54.0184V23.8541Z" fill="white"/>
  </mask>
  <g mask="url(#mask141_7616_11267)">
    <mask id="mask142_7616_11267" style="mask-type:luminance" maskUnits="userSpaceOnUse" x="54" y="23" width="3" height="8">
      <path d="M54.1385 26.9813C54.1385 25.7696 54.6381 24.6684 55.4471 23.8794C56.2556 24.6684 56.7562 25.7696 56.7562 26.9813C56.7562 28.1985 56.2556 29.2947 55.4471 30.0847C54.6381 29.2947 54.1385 28.1985 54.1385 26.9813Z" fill="white"/>
    </mask>
    <g mask="url(#mask142_7616_11267)">
      <mask id="mask143_7616_11267" style="mask-type:luminance" maskUnits="userSpaceOnUse" x="54" y="23" width="3" height="8">
        <path d="M54.1385 26.9813C54.1385 25.7696 54.6381 24.6684 55.4471 23.8794C56.2556 24.6684 56.7562 25.7696 56.7562 26.9813C56.7562 28.1985 56.2556 29.2947 55.4471 30.0847C54.6381 29.2947 54.1385 28.1985 54.1385 26.9813Z" fill="white"/>
      </mask>
      <g mask="url(#mask143_7616_11267)">
        <path d="M54.1385 30.0847H56.7562V23.8794H54.1385V30.0847Z" fill="#1E3D34"/>
      </g>
    </g>
  </g>
  <mask id="mask144_7616_11267" style="mask-type:luminance" maskUnits="userSpaceOnUse" x="0" y="23" width="10" height="6">
    <path d="M0 23.8541H9.85641V28.1872H0V23.8541Z" fill="white"/>
  </mask>
  <g mask="url(#mask144_7616_11267)">
    <mask id="mask145_7616_11267" style="mask-type:luminance" maskUnits="userSpaceOnUse" x="0" y="23" width="10" height="6">
      <path d="M5.17618 28.0455C7.07475 27.8608 8.72382 26.9164 9.83587 25.5385C8.47581 24.4044 6.67424 23.7966 4.77566 23.9828C2.87008 24.1685 1.22801 25.1118 0.115967 26.4893C1.47552 27.6248 3.2711 28.2317 5.17618 28.0455Z" fill="white"/>
    </mask>
    <g mask="url(#mask145_7616_11267)">
      <mask id="mask146_7616_11267" style="mask-type:luminance" maskUnits="userSpaceOnUse" x="0" y="23" width="10" height="6">
        <path d="M5.17618 28.0455C7.07475 27.8608 8.72382 26.9164 9.83587 25.5385C8.47581 24.4044 6.67424 23.7966 4.77566 23.9828C2.87008 24.1685 1.22801 25.1118 0.115967 26.4893C1.47552 27.6248 3.2711 28.2317 5.17618 28.0455Z" fill="white"/>
      </mask>
      <g mask="url(#mask146_7616_11267)">
        <path d="M9.83562 28.2312H0.115723V23.7961H9.83562V28.2312Z" fill="#1E3D34"/>
      </g>
    </g>
  </g>
  <g filter="url(#filter0_d_7616_11267)">
    <circle cx="10.5055" cy="30.5486" r="4.50245" fill="#F5C842"/>
  </g>
  <g filter="url(#filter1_d_7616_11267)">
    <circle cx="28.5158" cy="21.5438" r="4.50245" fill="#F5C842"/>
  </g>
  <g filter="url(#filter2_d_7616_11267)">
    <circle cx="48.0256" cy="20.0424" r="4.50245" fill="#F5C842"/>
  </g>
  <g filter="url(#filter3_d_7616_11267)">
    <circle cx="84.0459" cy="30.5486" r="4.50245" fill="#F5C842"/>
  </g>
  <g filter="url(#filter4_d_7616_11267)">
    <circle cx="88.5479" cy="45.5569" r="4.50245" fill="#F5C842"/>
  </g>
  <g filter="url(#filter5_d_7616_11267)">
    <circle cx="100.555" cy="29.0479" r="4.50245" fill="#F5C842"/>
  </g>
  <defs>
    <filter id="filter0_d_7616_11267" x="1.5006" y="23.0445" width="18.0098" height="18.0098" filterUnits="userSpaceOnUse" color-interpolation-filters="sRGB">
      <feFlood flood-opacity="0" result="BackgroundImageFix"/>
      <feColorMatrix in="SourceAlpha" type="matrix" values="0 0 0 0 0 0 0 0 0 0 0 0 0 0 0 0 0 0 127 0" result="hardAlpha"/>
      <feMorphology radius="3.00163" operator="dilate" in="SourceAlpha" result="effect1_dropShadow_7616_11267"/>
      <feOffset dy="1.50082"/>
      <feGaussianBlur stdDeviation="0.750408"/>
      <feComposite in2="hardAlpha" operator="out"/>
      <feColorMatrix type="matrix" values="0 0 0 0 0.960784 0 0 0 0 0.784314 0 0 0 0 0.258824 0 0 0 0.08 0"/>
      <feBlend mode="normal" in2="BackgroundImageFix" result="effect1_dropShadow_7616_11267"/>
      <feBlend mode="normal" in="SourceGraphic" in2="effect1_dropShadow_7616_11267" result="shape"/>
    </filter>
    <filter id="filter1_d_7616_11267" x="19.5109" y="14.0398" width="18.0098" height="18.0098" filterUnits="userSpaceOnUse" color-interpolation-filters="sRGB">
      <feFlood flood-opacity="0" result="BackgroundImageFix"/>
      <feColorMatrix in="SourceAlpha" type="matrix" values="0 0 0 0 0 0 0 0 0 0 0 0 0 0 0 0 0 0 127 0" result="hardAlpha"/>
      <feMorphology radius="3.00163" operator="dilate" in="SourceAlpha" result="effect1_dropShadow_7616_11267"/>
      <feOffset dy="1.50082"/>
      <feGaussianBlur stdDeviation="0.750408"/>
      <feComposite in2="hardAlpha" operator="out"/>
      <feColorMatrix type="matrix" values="0 0 0 0 0.960784 0 0 0 0 0.784314 0 0 0 0 0.258824 0 0 0 0.08 0"/>
      <feBlend mode="normal" in2="BackgroundImageFix" result="effect1_dropShadow_7616_11267"/>
      <feBlend mode="normal" in="SourceGraphic" in2="effect1_dropShadow_7616_11267" result="shape"/>
    </filter>
    <filter id="filter2_d_7616_11267" x="39.0207" y="12.5383" width="18.0098" height="18.0098" filterUnits="userSpaceOnUse" color-interpolation-filters="sRGB">
      <feFlood flood-opacity="0" result="BackgroundImageFix"/>
      <feColorMatrix in="SourceAlpha" type="matrix" values="0 0 0 0 0 0 0 0 0 0 0 0 0 0 0 0 0 0 127 0" result="hardAlpha"/>
      <feMorphology radius="3.00163" operator="dilate" in="SourceAlpha" result="effect1_dropShadow_7616_11267"/>
      <feOffset dy="1.50082"/>
      <feGaussianBlur stdDeviation="0.750408"/>
      <feComposite in2="hardAlpha" operator="out"/>
      <feColorMatrix type="matrix" values="0 0 0 0 0.960784 0 0 0 0 0.784314 0 0 0 0 0.258824 0 0 0 0.08 0"/>
      <feBlend mode="normal" in2="BackgroundImageFix" result="effect1_dropShadow_7616_11267"/>
      <feBlend mode="normal" in="SourceGraphic" in2="effect1_dropShadow_7616_11267" result="shape"/>
    </filter>
    <filter id="filter3_d_7616_11267" x="75.041" y="23.0445" width="18.0098" height="18.0098" filterUnits="userSpaceOnUse" color-interpolation-filters="sRGB">
      <feFlood flood-opacity="0" result="BackgroundImageFix"/>
      <feColorMatrix in="SourceAlpha" type="matrix" values="0 0 0 0 0 0 0 0 0 0 0 0 0 0 0 0 0 0 127 0" result="hardAlpha"/>
      <feMorphology radius="3.00163" operator="dilate" in="SourceAlpha" result="effect1_dropShadow_7616_11267"/>
      <feOffset dy="1.50082"/>
      <feGaussianBlur stdDeviation="0.750408"/>
      <feComposite in2="hardAlpha" operator="out"/>
      <feColorMatrix type="matrix" values="0 0 0 0 0.960784 0 0 0 0 0.784314 0 0 0 0 0.258824 0 0 0 0.08 0"/>
      <feBlend mode="normal" in2="BackgroundImageFix" result="effect1_dropShadow_7616_11267"/>
      <feBlend mode="normal" in="SourceGraphic" in2="effect1_dropShadow_7616_11267" result="shape"/>
    </filter>
    <filter id="filter4_d_7616_11267" x="79.543" y="38.0528" width="18.0098" height="18.0098" filterUnits="userSpaceOnUse" color-interpolation-filters="sRGB">
      <feFlood flood-opacity="0" result="BackgroundImageFix"/>
      <feColorMatrix in="SourceAlpha" type="matrix" values="0 0 0 0 0 0 0 0 0 0 0 0 0 0 0 0 0 0 127 0" result="hardAlpha"/>
      <feMorphology radius="3.00163" operator="dilate" in="SourceAlpha" result="effect1_dropShadow_7616_11267"/>
      <feOffset dy="1.50082"/>
      <feGaussianBlur stdDeviation="0.750408"/>
      <feComposite in2="hardAlpha" operator="out"/>
      <feColorMatrix type="matrix" values="0 0 0 0 0.960784 0 0 0 0 0.784314 0 0 0 0 0.258824 0 0 0 0.08 0"/>
      <feBlend mode="normal" in2="BackgroundImageFix" result="effect1_dropShadow_7616_11267"/>
      <feBlend mode="normal" in="SourceGraphic" in2="effect1_dropShadow_7616_11267" result="shape"/>
    </filter>
    <filter id="filter5_d_7616_11267" x="91.5503" y="21.5438" width="18.0098" height="18.0098" filterUnits="userSpaceOnUse" color-interpolation-filters="sRGB">
      <feFlood flood-opacity="0" result="BackgroundImageFix"/>
      <feColorMatrix in="SourceAlpha" type="matrix" values="0 0 0 0 0 0 0 0 0 0 0 0 0 0 0 0 0 0 127 0" result="hardAlpha"/>
      <feMorphology radius="3.00163" operator="dilate" in="SourceAlpha" result="effect1_dropShadow_7616_11267"/>
      <feOffset dy="1.50082"/>
      <feGaussianBlur stdDeviation="0.750408"/>
      <feComposite in2="hardAlpha" operator="out"/>
      <feColorMatrix type="matrix" values="0 0 0 0 0.960784 0 0 0 0 0.784314 0 0 0 0 0.258824 0 0 0 0.08 0"/>
      <feBlend mode="normal" in2="BackgroundImageFix" result="effect1_dropShadow_7616_11267"/>
      <feBlend mode="normal" in="SourceGraphic" in2="effect1_dropShadow_7616_11267" result="shape"/>
    </filter>
    <linearGradient id="paint0_linear_7616_11267" x1="87.2237" y1="50.1659" x2="87.2237" y2="43.6052" gradientUnits="userSpaceOnUse">
      <stop stop-color="#0A7D3C"/>
      <stop offset="0.03125" stop-color="#0A7D3C"/>
      <stop offset="0.0625" stop-color="#0B7E3B"/>
      <stop offset="0.09375" stop-color="#0B7E3B"/>
      <stop offset="0.125" stop-color="#0C7F3B"/>
      <stop offset="0.15625" stop-color="#0D7F3B"/>
      <stop offset="0.1875" stop-color="#0D7F3A"/>
      <stop offset="0.21875" stop-color="#0E803A"/>
      <stop offset="0.25" stop-color="#0F803A"/>
      <stop offset="0.28125" stop-color="#0F803A"/>
      <stop offset="0.3125" stop-color="#108139"/>
      <stop offset="0.34375" stop-color="#118139"/>
      <stop offset="0.375" stop-color="#118239"/>
      <stop offset="0.40625" stop-color="#128239"/>
      <stop offset="0.4375" stop-color="#138238"/>
      <stop offset="0.46875" stop-color="#148338"/>
      <stop offset="0.5" stop-color="#148338"/>
      <stop offset="0.53125" stop-color="#158438"/>
      <stop offset="0.5625" stop-color="#168438"/>
      <stop offset="0.59375" stop-color="#168437"/>
      <stop offset="0.625" stop-color="#178537"/>
      <stop offset="0.65625" stop-color="#188537"/>
      <stop offset="0.6875" stop-color="#188537"/>
      <stop offset="0.71875" stop-color="#198636"/>
      <stop offset="0.75" stop-color="#1A8636"/>
      <stop offset="0.78125" stop-color="#1A8736"/>
      <stop offset="0.8125" stop-color="#1B8736"/>
      <stop offset="0.84375" stop-color="#1C8735"/>
      <stop offset="0.875" stop-color="#1C8835"/>
      <stop offset="0.90625" stop-color="#1D8835"/>
      <stop offset="0.9375" stop-color="#1E8835"/>
      <stop offset="0.96875" stop-color="#1F8934"/>
      <stop offset="1" stop-color="#1F8934"/>
    </linearGradient>
    <linearGradient id="paint1_linear_7616_11267" x1="99.6482" y1="31.2955" x2="99.6482" y2="27.1154" gradientUnits="userSpaceOnUse">
      <stop stop-color="#49A026"/>
      <stop offset="0.0625" stop-color="#49A026"/>
      <stop offset="0.125" stop-color="#4AA125"/>
      <stop offset="0.1875" stop-color="#4BA125"/>
      <stop offset="0.25" stop-color="#4CA225"/>
      <stop offset="0.3125" stop-color="#4DA224"/>
      <stop offset="0.375" stop-color="#4EA324"/>
      <stop offset="0.4375" stop-color="#4FA324"/>
      <stop offset="0.5" stop-color="#50A423"/>
      <stop offset="0.5625" stop-color="#50A423"/>
      <stop offset="0.625" stop-color="#51A523"/>
      <stop offset="0.6875" stop-color="#52A523"/>
      <stop offset="0.75" stop-color="#53A622"/>
      <stop offset="0.8125" stop-color="#54A622"/>
      <stop offset="0.875" stop-color="#55A722"/>
      <stop offset="0.9375" stop-color="#56A721"/>
      <stop offset="1" stop-color="#57A821"/>
    </linearGradient>
    <linearGradient id="paint2_linear_7616_11267" x1="11.1497" y1="31.2955" x2="11.1497" y2="27.1154" gradientUnits="userSpaceOnUse">
      <stop stop-color="#49A026"/>
      <stop offset="0.0625" stop-color="#49A026"/>
      <stop offset="0.125" stop-color="#4AA125"/>
      <stop offset="0.1875" stop-color="#4BA125"/>
      <stop offset="0.25" stop-color="#4CA225"/>
      <stop offset="0.3125" stop-color="#4DA224"/>
      <stop offset="0.375" stop-color="#4EA324"/>
      <stop offset="0.4375" stop-color="#4FA324"/>
      <stop offset="0.5" stop-color="#50A423"/>
      <stop offset="0.5625" stop-color="#50A423"/>
      <stop offset="0.625" stop-color="#51A523"/>
      <stop offset="0.6875" stop-color="#52A523"/>
      <stop offset="0.75" stop-color="#53A622"/>
      <stop offset="0.8125" stop-color="#54A622"/>
      <stop offset="0.875" stop-color="#55A722"/>
      <stop offset="0.9375" stop-color="#56A721"/>
      <stop offset="1" stop-color="#57A821"/>
    </linearGradient>
  </defs>
</svg>
