<svg xmlns="http://www.w3.org/2000/svg" width="24" height="24" viewBox="0 0 24 24" fill="none">
<path d="M1.99951 6C1.99951 5.46957 2.21023 4.96086 2.5853 4.58579C2.96037 4.21071 3.46908 4 3.99951 4H19.9995C20.5299 4 21.0387 4.21071 21.4137 4.58579C21.7888 4.96086 21.9995 5.46957 21.9995 6V18C21.9995 18.5304 21.7888 19.0391 21.4137 19.4142C21.0387 19.7893 20.5299 20 19.9995 20H3.99951C3.46908 20 2.96037 19.7893 2.5853 19.4142C2.21023 19.0391 1.99951 18.5304 1.99951 18V6Z" stroke="white" stroke-width="1.8" stroke-linecap="round" stroke-linejoin="round"/>
<path d="M1.99951 8L9.50051 14.001C10.2098 14.5685 11.0911 14.8777 11.9995 14.8777C12.9079 14.8777 13.7892 14.5685 14.4985 14.001L21.9995 8" stroke="white" stroke-width="1.8" stroke-linecap="round" stroke-linejoin="round"/>
</svg>
