<svg width="48" height="48" viewBox="0 0 48 48" fill="none" xmlns="http://www.w3.org/2000/svg">
<rect width="48" height="48" rx="24" fill="#2775CA"/>
<path d="M28.7079 26.7853C28.7079 24.1298 27.114 23.2185 23.9267 22.8381C21.6496 22.5339 21.1946 21.9274 21.1946 20.8653C21.1946 19.8032 21.9539 19.1205 23.4716 19.1205C24.838 19.1205 25.5973 19.5761 25.9762 20.7144C26.0529 20.942 26.2805 21.0933 26.508 21.0933H27.723C28.0272 21.0933 28.2548 20.8658 28.2548 20.5616V20.4849C27.9506 18.8148 26.5842 17.5251 24.8394 17.3738V15.5523C24.8394 15.2481 24.6119 15.0205 24.2329 14.9458H23.0946C22.7904 14.9458 22.5629 15.1734 22.4882 15.5523V17.2976C20.2111 17.6018 18.7686 19.119 18.7686 21.0172C18.7686 23.5218 20.2858 24.5092 23.4736 24.8876C25.5993 25.2666 26.2825 25.7217 26.2825 26.9367C26.2825 28.1516 25.2204 28.9857 23.7778 28.9857C21.805 28.9857 21.1218 28.1516 20.8942 27.0128C20.8176 26.7086 20.59 26.5572 20.3625 26.5572H19.0728C18.7686 26.5572 18.541 26.7848 18.541 27.089V27.1657C18.8453 29.0638 20.0582 30.4297 22.5629 30.8086V32.6301C22.5629 32.9343 22.7904 33.1619 23.1693 33.2366H24.3076C24.6119 33.2366 24.8394 33.009 24.9141 32.6301V30.8086C27.1887 30.4282 28.7079 28.8343 28.7079 26.7853Z" fill="white"/>
<path d="M19.8282 34.7542C13.9082 32.6285 10.8718 26.0253 13.0741 20.182C14.2124 16.9942 16.7171 14.5662 19.8282 13.428C20.1324 13.2766 20.2838 13.049 20.2838 12.6686V11.6065C20.2838 11.3023 20.1324 11.0747 19.8282 11C19.7515 11 19.6006 11 19.5239 11.0767C12.3143 13.3537 8.36714 21.0185 10.6442 28.2297C12.0101 32.4791 15.2745 35.7435 19.5239 37.1094C19.8282 37.2608 20.1304 37.1094 20.2071 36.8052C20.2838 36.7285 20.2838 36.6538 20.2838 36.5009V35.4388C20.2833 35.2098 20.0557 34.9075 19.8282 34.7542ZM27.8719 11.0747C27.5677 10.9233 27.2654 11.0747 27.1887 11.3789C27.112 11.4556 27.112 11.5303 27.112 11.6832V12.7453C27.112 13.0495 27.3396 13.3518 27.5677 13.5046C33.4876 15.6303 36.524 22.2335 34.3217 28.0768C33.1834 31.2646 30.6788 33.6925 27.5677 34.8308C27.2634 34.9822 27.112 35.2098 27.112 35.5902V36.6523C27.112 36.9565 27.2634 37.1841 27.5677 37.2588C27.6443 37.2588 27.7952 37.2588 27.8719 37.1821C35.0815 34.905 39.0287 27.2403 36.7516 20.0291C35.3853 15.705 32.0466 12.441 27.8719 11.0747Z" fill="white"/>
</svg>
